<?xml version="1.0" encoding="UTF-8" standalone="no"?>
<!DOCTYPE svg PUBLIC "-//W3C//DTD SVG 1.1//EN"
 "http://www.w3.org/Graphics/SVG/1.1/DTD/svg11.dtd">
<!-- Generated by graphviz version 8.1.0 (0)
 -->
<!-- Pages: 1 -->
<svg width="721pt" height="98pt"
 viewBox="0.00 0.00 720.80 98.00" xmlns="http://www.w3.org/2000/svg" xmlns:xlink="http://www.w3.org/1999/xlink">
<g id="graph0" class="graph" transform="scale(1 1) rotate(0) translate(4 94)">
<polygon fill="white" stroke="none" points="-4,4 -4,-94 716.8,-94 716.8,4 -4,4"/>
<!-- /nix/store/whypqfa83z4bsn43n4byvmw80n4mg3r8&#45;glibc&#45;2.37&#45;45 -->
<g id="node1" class="node">
<title>/nix/store/whypqfa83z4bsn43n4byvmw80n4mg3r8&#45;glibc&#45;2.37&#45;45</title>
<path fill="#eeeeee" stroke="black" d="M303.9,-82C303.9,-82 191.7,-82 191.7,-82 185.7,-82 179.7,-76 179.7,-70 179.7,-70 179.7,-58 179.7,-58 179.7,-52 185.7,-46 191.7,-46 191.7,-46 303.9,-46 303.9,-46 309.9,-46 315.9,-52 315.9,-58 315.9,-58 315.9,-70 315.9,-70 315.9,-76 309.9,-82 303.9,-82"/>
<text text-anchor="middle" x="247.8" y="-59.33" font-family="Times,serif" font-size="14.00">glibc&#45;2.37&#45;45</text>
</g>
<!-- /nix/store/4563gldw8ibz76f1a3x69zq3a1vhdpz9&#45;libidn2&#45;2.3.4 -->
<g id="node3" class="node">
<title>/nix/store/4563gldw8ibz76f1a3x69zq3a1vhdpz9&#45;libidn2&#45;2.3.4</title>
<path fill="#eeeeee" stroke="black" d="M492.23,-90C492.23,-90 383.02,-90 383.02,-90 377.02,-90 371.02,-84 371.02,-78 371.02,-78 371.02,-66 371.02,-66 371.02,-60 377.02,-54 383.02,-54 383.02,-54 492.23,-54 492.23,-54 498.23,-54 504.23,-60 504.23,-66 504.23,-66 504.23,-78 504.23,-78 504.23,-84 498.23,-90 492.23,-90"/>
<text text-anchor="middle" x="437.62" y="-67.33" font-family="Times,serif" font-size="14.00">libidn2&#45;2.3.4</text>
</g>
<!-- /nix/store/whypqfa83z4bsn43n4byvmw80n4mg3r8&#45;glibc&#45;2.37&#45;45&#45;&gt;/nix/store/4563gldw8ibz76f1a3x69zq3a1vhdpz9&#45;libidn2&#45;2.3.4 -->
<g id="edge2" class="edge">
<title>/nix/store/whypqfa83z4bsn43n4byvmw80n4mg3r8&#45;glibc&#45;2.37&#45;45&#45;&gt;/nix/store/4563gldw8ibz76f1a3x69zq3a1vhdpz9&#45;libidn2&#45;2.3.4</title>
<path fill="none" stroke="black" d="M316.34,-66.88C330.42,-67.48 345.36,-68.11 359.75,-68.73"/>
<polygon fill="black" stroke="black" points="359.48,-72.26 369.62,-69.19 359.78,-65.27 359.48,-72.26"/>
</g>
<!-- /nix/store/jd99cyc0251p0i5y69w8mqjcai8mcq7h&#45;xgcc&#45;12.2.0&#45;libgcc -->
<g id="node5" class="node">
<title>/nix/store/jd99cyc0251p0i5y69w8mqjcai8mcq7h&#45;xgcc&#45;12.2.0&#45;libgcc</title>
<path fill="#eeeeee" stroke="black" d="M511.35,-36C511.35,-36 363.9,-36 363.9,-36 357.9,-36 351.9,-30 351.9,-24 351.9,-24 351.9,-12 351.9,-12 351.9,-6 357.9,0 363.9,0 363.9,0 511.35,0 511.35,0 517.35,0 523.35,-6 523.35,-12 523.35,-12 523.35,-24 523.35,-24 523.35,-30 517.35,-36 511.35,-36"/>
<text text-anchor="middle" x="437.62" y="-13.32" font-family="Times,serif" font-size="14.00">xgcc&#45;12.2.0&#45;libgcc</text>
</g>
<!-- /nix/store/whypqfa83z4bsn43n4byvmw80n4mg3r8&#45;glibc&#45;2.37&#45;45&#45;&gt;/nix/store/jd99cyc0251p0i5y69w8mqjcai8mcq7h&#45;xgcc&#45;12.2.0&#45;libgcc -->
<g id="edge4" class="edge">
<title>/nix/store/whypqfa83z4bsn43n4byvmw80n4mg3r8&#45;glibc&#45;2.37&#45;45&#45;&gt;/nix/store/jd99cyc0251p0i5y69w8mqjcai8mcq7h&#45;xgcc&#45;12.2.0&#45;libgcc</title>
<path fill="none" stroke="black" d="M316.34,-47.46C327.54,-44.72 339.27,-41.84 350.84,-39.01"/>
<polygon fill="black" stroke="black" points="351.52,-42.2 360.4,-36.42 349.86,-35.4 351.52,-42.2"/>
</g>
<!-- /nix/store/wi2m2ddkkb1g7bdpcw2halmh07a8kncn&#45;nix&#45;hello&#45;0.0.1 -->
<g id="node2" class="node">
<title>/nix/store/wi2m2ddkkb1g7bdpcw2halmh07a8kncn&#45;nix&#45;hello&#45;0.0.1</title>
<path fill="#eeeeee" stroke="black" d="M131.7,-59C131.7,-59 12,-59 12,-59 6,-59 0,-53 0,-47 0,-47 0,-35 0,-35 0,-29 6,-23 12,-23 12,-23 131.7,-23 131.7,-23 137.7,-23 143.7,-29 143.7,-35 143.7,-35 143.7,-47 143.7,-47 143.7,-53 137.7,-59 131.7,-59"/>
<text text-anchor="middle" x="71.85" y="-36.33" font-family="Times,serif" font-size="14.00">nix&#45;hello&#45;0.0.1</text>
</g>
<!-- /nix/store/wi2m2ddkkb1g7bdpcw2halmh07a8kncn&#45;nix&#45;hello&#45;0.0.1&#45;&gt;/nix/store/whypqfa83z4bsn43n4byvmw80n4mg3r8&#45;glibc&#45;2.37&#45;45 -->
<g id="edge1" class="edge">
<title>/nix/store/wi2m2ddkkb1g7bdpcw2halmh07a8kncn&#45;nix&#45;hello&#45;0.0.1&#45;&gt;/nix/store/whypqfa83z4bsn43n4byvmw80n4mg3r8&#45;glibc&#45;2.37&#45;45</title>
<path fill="none" stroke="black" d="M144.1,-50.42C152.19,-51.49 160.47,-52.59 168.64,-53.67"/>
<polygon fill="black" stroke="black" points="167.93,-57.23 178.3,-55.08 168.85,-50.29 167.93,-57.23"/>
</g>
<!-- /nix/store/wi2m2ddkkb1g7bdpcw2halmh07a8kncn&#45;nix&#45;hello&#45;0.0.1&#45;&gt;/nix/store/jd99cyc0251p0i5y69w8mqjcai8mcq7h&#45;xgcc&#45;12.2.0&#45;libgcc -->
<g id="edge5" class="edge">
<title>/nix/store/wi2m2ddkkb1g7bdpcw2halmh07a8kncn&#45;nix&#45;hello&#45;0.0.1&#45;&gt;/nix/store/jd99cyc0251p0i5y69w8mqjcai8mcq7h&#45;xgcc&#45;12.2.0&#45;libgcc</title>
<path fill="none" stroke="black" d="M143.85,-36.51C199.93,-32.97 278.75,-27.98 340.48,-24.08"/>
<polygon fill="black" stroke="black" points="340.65,-27.51 350.41,-23.39 340.21,-20.53 340.65,-27.51"/>
</g>
<!-- /nix/store/567zfi9026lp2q6v97vwn640rv6i3n4c&#45;libunistring&#45;1.1 -->
<g id="node4" class="node">
<title>/nix/store/567zfi9026lp2q6v97vwn640rv6i3n4c&#45;libunistring&#45;1.1</title>
<path fill="#eeeeee" stroke="black" d="M700.8,-90C700.8,-90 571.35,-90 571.35,-90 565.35,-90 559.35,-84 559.35,-78 559.35,-78 559.35,-66 559.35,-66 559.35,-60 565.35,-54 571.35,-54 571.35,-54 700.8,-54 700.8,-54 706.8,-54 712.8,-60 712.8,-66 712.8,-66 712.8,-78 712.8,-78 712.8,-84 706.8,-90 700.8,-90"/>
<text text-anchor="middle" x="636.07" y="-67.33" font-family="Times,serif" font-size="14.00">libunistring&#45;1.1</text>
</g>
<!-- /nix/store/4563gldw8ibz76f1a3x69zq3a1vhdpz9&#45;libidn2&#45;2.3.4&#45;&gt;/nix/store/567zfi9026lp2q6v97vwn640rv6i3n4c&#45;libunistring&#45;1.1 -->
<g id="edge3" class="edge">
<title>/nix/store/4563gldw8ibz76f1a3x69zq3a1vhdpz9&#45;libidn2&#45;2.3.4&#45;&gt;/nix/store/567zfi9026lp2q6v97vwn640rv6i3n4c&#45;libunistring&#45;1.1</title>
<path fill="none" stroke="black" d="M504.59,-72C518.67,-72 533.75,-72 548.47,-72"/>
<polygon fill="black" stroke="black" points="548.11,-75.5 558.11,-72 548.11,-68.5 548.11,-75.5"/>
</g>
</g>
</svg>
