<?xml version="1.0" encoding="UTF-8" standalone="no"?>
<!DOCTYPE svg PUBLIC "-//W3C//DTD SVG 1.1//EN"
 "http://www.w3.org/Graphics/SVG/1.1/DTD/svg11.dtd">
<!-- Generated by graphviz version 2.43.0 (0)
 -->
<!-- Title: %3 Pages: 1 -->
<svg width="667pt" height="146pt"
 viewBox="0.00 0.00 667.00 146.47" xmlns="http://www.w3.org/2000/svg" xmlns:xlink="http://www.w3.org/1999/xlink">
<g id="graph0" class="graph" transform="scale(1 1) rotate(0) translate(4 142.47)">
<title>%3</title>
<polygon fill="white" stroke="transparent" points="-4,4 -4,-142.47 663,-142.47 663,4 -4,4"/>
<!-- /nix/store/4mxnw95jcm5a27qk60z7yc0gvxp42b9a&#45;openssl&#45;3.0.7 -->
<g id="node1" class="node">
<title>/nix/store/4mxnw95jcm5a27qk60z7yc0gvxp42b9a&#45;openssl&#45;3.0.7</title>
<path fill="#ffe6e6" stroke="black" d="M647,-136C647,-136 532,-136 532,-136 526,-136 520,-130 520,-124 520,-124 520,-112 520,-112 520,-106 526,-100 532,-100 532,-100 647,-100 647,-100 653,-100 659,-106 659,-112 659,-112 659,-124 659,-124 659,-130 653,-136 647,-136"/>
<text text-anchor="middle" x="589.5" y="-114.3" font-family="Times,serif" font-size="14.00">openssl&#45;3.0.7</text>
</g>
<!-- /nix/store/z0k80z4bryryadddz08xwxrc5d44q97k&#45;curl&#45;7.86.0 -->
<g id="node2" class="node">
<title>/nix/store/z0k80z4bryryadddz08xwxrc5d44q97k&#45;curl&#45;7.86.0</title>
<path fill="#eeeeee" stroke="black" d="M275.5,-119C275.5,-119 177.5,-119 177.5,-119 171.5,-119 165.5,-113 165.5,-107 165.5,-107 165.5,-95 165.5,-95 165.5,-89 171.5,-83 177.5,-83 177.5,-83 275.5,-83 275.5,-83 281.5,-83 287.5,-89 287.5,-95 287.5,-95 287.5,-107 287.5,-107 287.5,-113 281.5,-119 275.5,-119"/>
<text text-anchor="middle" x="226.5" y="-97.3" font-family="Times,serif" font-size="14.00">curl&#45;7.86.0</text>
</g>
<!-- /nix/store/z0k80z4bryryadddz08xwxrc5d44q97k&#45;curl&#45;7.86.0&#45;&gt;/nix/store/4mxnw95jcm5a27qk60z7yc0gvxp42b9a&#45;openssl&#45;3.0.7 -->
<g id="edge1" class="edge">
<title>/nix/store/z0k80z4bryryadddz08xwxrc5d44q97k&#45;curl&#45;7.86.0&#45;&gt;/nix/store/4mxnw95jcm5a27qk60z7yc0gvxp42b9a&#45;openssl&#45;3.0.7</title>
<path fill="none" stroke="black" d="M287.52,-103.83C348.35,-106.69 442.79,-111.14 509.63,-114.29"/>
<polygon fill="black" stroke="black" points="509.55,-117.79 519.7,-114.76 509.88,-110.79 509.55,-117.79"/>
</g>
<!-- /nix/store/vqq9s0d6fw6kqf3sr5nrzqbys9rhygqd&#45;libssh2&#45;1.10.0 -->
<g id="node4" class="node">
<title>/nix/store/vqq9s0d6fw6kqf3sr5nrzqbys9rhygqd&#45;libssh2&#45;1.10.0</title>
<path fill="#eeeeee" stroke="black" d="M472,-90C472,-90 351,-90 351,-90 345,-90 339,-84 339,-78 339,-78 339,-66 339,-66 339,-60 345,-54 351,-54 351,-54 472,-54 472,-54 478,-54 484,-60 484,-66 484,-66 484,-78 484,-78 484,-84 478,-90 472,-90"/>
<text text-anchor="middle" x="411.5" y="-68.3" font-family="Times,serif" font-size="14.00">libssh2&#45;1.10.0</text>
</g>
<!-- /nix/store/z0k80z4bryryadddz08xwxrc5d44q97k&#45;curl&#45;7.86.0&#45;&gt;/nix/store/vqq9s0d6fw6kqf3sr5nrzqbys9rhygqd&#45;libssh2&#45;1.10.0 -->
<g id="edge5" class="edge">
<title>/nix/store/z0k80z4bryryadddz08xwxrc5d44q97k&#45;curl&#45;7.86.0&#45;&gt;/nix/store/vqq9s0d6fw6kqf3sr5nrzqbys9rhygqd&#45;libssh2&#45;1.10.0</title>
<path fill="none" stroke="black" d="M287.67,-91.46C300.84,-89.38 314.98,-87.14 328.82,-84.94"/>
<polygon fill="black" stroke="black" points="329.5,-88.38 338.83,-83.36 328.4,-81.47 329.5,-88.38"/>
</g>
<!-- /nix/store/sb0fay7ihrqibk325qyx0377ywrfdnxp&#45;git&#45;2.38.1 -->
<g id="node3" class="node">
<title>/nix/store/sb0fay7ihrqibk325qyx0377ywrfdnxp&#45;git&#45;2.38.1</title>
<path fill="#eeeeee" stroke="black" d="M102,-119C102,-119 12,-119 12,-119 6,-119 0,-113 0,-107 0,-107 0,-95 0,-95 0,-89 6,-83 12,-83 12,-83 102,-83 102,-83 108,-83 114,-89 114,-95 114,-95 114,-107 114,-107 114,-113 108,-119 102,-119"/>
<text text-anchor="middle" x="57" y="-97.3" font-family="Times,serif" font-size="14.00">git&#45;2.38.1</text>
</g>
<!-- /nix/store/sb0fay7ihrqibk325qyx0377ywrfdnxp&#45;git&#45;2.38.1&#45;&gt;/nix/store/4mxnw95jcm5a27qk60z7yc0gvxp42b9a&#45;openssl&#45;3.0.7 -->
<g id="edge3" class="edge">
<title>/nix/store/sb0fay7ihrqibk325qyx0377ywrfdnxp&#45;git&#45;2.38.1&#45;&gt;/nix/store/4mxnw95jcm5a27qk60z7yc0gvxp42b9a&#45;openssl&#45;3.0.7</title>
<path fill="none" stroke="black" d="M109.97,-119.05C122.89,-122.76 136.82,-126.11 150,-128 274.71,-145.92 421.38,-136.5 509.53,-127.59"/>
<polygon fill="black" stroke="black" points="510.14,-131.05 519.72,-126.54 509.42,-124.09 510.14,-131.05"/>
</g>
<!-- /nix/store/sb0fay7ihrqibk325qyx0377ywrfdnxp&#45;git&#45;2.38.1&#45;&gt;/nix/store/z0k80z4bryryadddz08xwxrc5d44q97k&#45;curl&#45;7.86.0 -->
<g id="edge2" class="edge">
<title>/nix/store/sb0fay7ihrqibk325qyx0377ywrfdnxp&#45;git&#45;2.38.1&#45;&gt;/nix/store/z0k80z4bryryadddz08xwxrc5d44q97k&#45;curl&#45;7.86.0</title>
<path fill="none" stroke="black" d="M114.24,-101C127.34,-101 141.46,-101 155.08,-101"/>
<polygon fill="black" stroke="black" points="155.39,-104.5 165.39,-101 155.39,-97.5 155.39,-104.5"/>
</g>
<!-- /nix/store/qc8rlhdcdxaf6dwbvv0v4k50w937fyzj&#45;python3&#45;3.10.8 -->
<g id="node6" class="node">
<title>/nix/store/qc8rlhdcdxaf6dwbvv0v4k50w937fyzj&#45;python3&#45;3.10.8</title>
<path fill="#eeeeee" stroke="black" d="M291,-46C291,-46 162,-46 162,-46 156,-46 150,-40 150,-34 150,-34 150,-22 150,-22 150,-16 156,-10 162,-10 162,-10 291,-10 291,-10 297,-10 303,-16 303,-22 303,-22 303,-34 303,-34 303,-40 297,-46 291,-46"/>
<text text-anchor="middle" x="226.5" y="-24.3" font-family="Times,serif" font-size="14.00">python3&#45;3.10.8</text>
</g>
<!-- /nix/store/sb0fay7ihrqibk325qyx0377ywrfdnxp&#45;git&#45;2.38.1&#45;&gt;/nix/store/qc8rlhdcdxaf6dwbvv0v4k50w937fyzj&#45;python3&#45;3.10.8 -->
<g id="edge7" class="edge">
<title>/nix/store/sb0fay7ihrqibk325qyx0377ywrfdnxp&#45;git&#45;2.38.1&#45;&gt;/nix/store/qc8rlhdcdxaf6dwbvv0v4k50w937fyzj&#45;python3&#45;3.10.8</title>
<path fill="none" stroke="black" d="M99.4,-82.96C122.15,-73.04 150.56,-60.66 174.65,-50.16"/>
<polygon fill="black" stroke="black" points="176.22,-53.29 183.99,-46.09 173.43,-46.88 176.22,-53.29"/>
</g>
<!-- /nix/store/vqq9s0d6fw6kqf3sr5nrzqbys9rhygqd&#45;libssh2&#45;1.10.0&#45;&gt;/nix/store/4mxnw95jcm5a27qk60z7yc0gvxp42b9a&#45;openssl&#45;3.0.7 -->
<g id="edge4" class="edge">
<title>/nix/store/vqq9s0d6fw6kqf3sr5nrzqbys9rhygqd&#45;libssh2&#45;1.10.0&#45;&gt;/nix/store/4mxnw95jcm5a27qk60z7yc0gvxp42b9a&#45;openssl&#45;3.0.7</title>
<path fill="none" stroke="black" d="M481.55,-90.05C490.92,-92.5 500.58,-95.02 510.09,-97.51"/>
<polygon fill="black" stroke="black" points="509.37,-100.94 519.93,-100.08 511.14,-94.16 509.37,-100.94"/>
</g>
<!-- /nix/store/jpj9lx0p2h1vs3gkzj8jh350113bsm84&#45;sqlite&#45;3.39.4 -->
<g id="node5" class="node">
<title>/nix/store/jpj9lx0p2h1vs3gkzj8jh350113bsm84&#45;sqlite&#45;3.39.4</title>
<path fill="#ffe6e6" stroke="black" d="M466.5,-36C466.5,-36 356.5,-36 356.5,-36 350.5,-36 344.5,-30 344.5,-24 344.5,-24 344.5,-12 344.5,-12 344.5,-6 350.5,0 356.5,0 356.5,0 466.5,0 466.5,0 472.5,0 478.5,-6 478.5,-12 478.5,-12 478.5,-24 478.5,-24 478.5,-30 472.5,-36 466.5,-36"/>
<text text-anchor="middle" x="411.5" y="-14.3" font-family="Times,serif" font-size="14.00">sqlite&#45;3.39.4</text>
</g>
<!-- /nix/store/qc8rlhdcdxaf6dwbvv0v4k50w937fyzj&#45;python3&#45;3.10.8&#45;&gt;/nix/store/jpj9lx0p2h1vs3gkzj8jh350113bsm84&#45;sqlite&#45;3.39.4 -->
<g id="edge6" class="edge">
<title>/nix/store/qc8rlhdcdxaf6dwbvv0v4k50w937fyzj&#45;python3&#45;3.10.8&#45;&gt;/nix/store/jpj9lx0p2h1vs3gkzj8jh350113bsm84&#45;sqlite&#45;3.39.4</title>
<path fill="none" stroke="black" d="M303.25,-23.86C313.5,-23.3 324.03,-22.73 334.29,-22.16"/>
<polygon fill="black" stroke="black" points="334.64,-25.65 344.44,-21.61 334.26,-18.66 334.64,-25.65"/>
</g>
</g>
</svg>
