<?xml version="1.0" encoding="UTF-8" standalone="no"?>
<!DOCTYPE svg PUBLIC "-//W3C//DTD SVG 1.1//EN"
 "http://www.w3.org/Graphics/SVG/1.1/DTD/svg11.dtd">
<!-- Generated by graphviz version 2.43.0 (0)
 -->
<!-- Title: %3 Pages: 1 -->
<svg width="415pt" height="314pt"
 viewBox="0.00 0.00 415.00 314.00" xmlns="http://www.w3.org/2000/svg" xmlns:xlink="http://www.w3.org/1999/xlink">
<g id="graph0" class="graph" transform="scale(1 1) rotate(0) translate(4 310)">
<title>%3</title>
<polygon fill="white" stroke="transparent" points="-4,4 -4,-310 411,-310 411,4 -4,4"/>
<!-- /nix/store/4nlgxhb09sdr51nc9hdm8az5b08vzkgx&#45;glibc&#45;2.35&#45;163 -->
<g id="node1" class="node">
<title>/nix/store/4nlgxhb09sdr51nc9hdm8az5b08vzkgx&#45;glibc&#45;2.35&#45;163</title>
<path fill="#eeeeee" stroke="black" d="M347.5,-306C347.5,-306 224.5,-306 224.5,-306 218.5,-306 212.5,-300 212.5,-294 212.5,-294 212.5,-282 212.5,-282 212.5,-276 218.5,-270 224.5,-270 224.5,-270 347.5,-270 347.5,-270 353.5,-270 359.5,-276 359.5,-282 359.5,-282 359.5,-294 359.5,-294 359.5,-300 353.5,-306 347.5,-306"/>
<text text-anchor="middle" x="286" y="-284.3" font-family="Times,serif" font-size="14.00">glibc&#45;2.35&#45;163</text>
</g>
<!-- /nix/store/3cpw8kzaqzrkksp50gaw490qgy99cwf4&#45;wget&#45;1.21.3 -->
<g id="node2" class="node">
<title>/nix/store/3cpw8kzaqzrkksp50gaw490qgy99cwf4&#45;wget&#45;1.21.3</title>
<path fill="#eeeeee" stroke="black" d="M117,-171C117,-171 12,-171 12,-171 6,-171 0,-165 0,-159 0,-159 0,-147 0,-147 0,-141 6,-135 12,-135 12,-135 117,-135 117,-135 123,-135 129,-141 129,-147 129,-147 129,-159 129,-159 129,-165 123,-171 117,-171"/>
<text text-anchor="middle" x="64.5" y="-149.3" font-family="Times,serif" font-size="14.00">wget&#45;1.21.3</text>
</g>
<!-- /nix/store/3cpw8kzaqzrkksp50gaw490qgy99cwf4&#45;wget&#45;1.21.3&#45;&gt;/nix/store/4nlgxhb09sdr51nc9hdm8az5b08vzkgx&#45;glibc&#45;2.35&#45;163 -->
<g id="edge1" class="edge">
<title>/nix/store/3cpw8kzaqzrkksp50gaw490qgy99cwf4&#45;wget&#45;1.21.3&#45;&gt;/nix/store/4nlgxhb09sdr51nc9hdm8az5b08vzkgx&#45;glibc&#45;2.35&#45;163</title>
<path fill="none" stroke="black" d="M76.91,-171.06C93.32,-195.44 125.93,-238.43 165,-261 176.42,-267.6 189.31,-272.58 202.3,-276.35"/>
<polygon fill="black" stroke="black" points="201.67,-279.8 212.24,-279 203.48,-273.04 201.67,-279.8"/>
</g>
<!-- /nix/store/5mh5019jigj0k14rdnjam1xwk5avn1id&#45;libidn2&#45;2.3.2 -->
<g id="node3" class="node">
<title>/nix/store/5mh5019jigj0k14rdnjam1xwk5avn1id&#45;libidn2&#45;2.3.2</title>
<path fill="#eeeeee" stroke="black" d="M341.5,-252C341.5,-252 230.5,-252 230.5,-252 224.5,-252 218.5,-246 218.5,-240 218.5,-240 218.5,-228 218.5,-228 218.5,-222 224.5,-216 230.5,-216 230.5,-216 341.5,-216 341.5,-216 347.5,-216 353.5,-222 353.5,-228 353.5,-228 353.5,-240 353.5,-240 353.5,-246 347.5,-252 341.5,-252"/>
<text text-anchor="middle" x="286" y="-230.3" font-family="Times,serif" font-size="14.00">libidn2&#45;2.3.2</text>
</g>
<!-- /nix/store/3cpw8kzaqzrkksp50gaw490qgy99cwf4&#45;wget&#45;1.21.3&#45;&gt;/nix/store/5mh5019jigj0k14rdnjam1xwk5avn1id&#45;libidn2&#45;2.3.2 -->
<g id="edge2" class="edge">
<title>/nix/store/3cpw8kzaqzrkksp50gaw490qgy99cwf4&#45;wget&#45;1.21.3&#45;&gt;/nix/store/5mh5019jigj0k14rdnjam1xwk5avn1id&#45;libidn2&#45;2.3.2</title>
<path fill="none" stroke="black" d="M93.67,-171.02C113.07,-182.73 139.79,-197.53 165,-207 178.72,-212.15 193.72,-216.49 208.31,-220.07"/>
<polygon fill="black" stroke="black" points="207.8,-223.54 218.33,-222.42 209.4,-216.73 207.8,-223.54"/>
</g>
<!-- /nix/store/4mxnw95jcm5a27qk60z7yc0gvxp42b9a&#45;openssl&#45;3.0.7 -->
<g id="node4" class="node">
<title>/nix/store/4mxnw95jcm5a27qk60z7yc0gvxp42b9a&#45;openssl&#45;3.0.7</title>
<path fill="#eeeeee" stroke="black" d="M343.5,-198C343.5,-198 228.5,-198 228.5,-198 222.5,-198 216.5,-192 216.5,-186 216.5,-186 216.5,-174 216.5,-174 216.5,-168 222.5,-162 228.5,-162 228.5,-162 343.5,-162 343.5,-162 349.5,-162 355.5,-168 355.5,-174 355.5,-174 355.5,-186 355.5,-186 355.5,-192 349.5,-198 343.5,-198"/>
<text text-anchor="middle" x="286" y="-176.3" font-family="Times,serif" font-size="14.00">openssl&#45;3.0.7</text>
</g>
<!-- /nix/store/3cpw8kzaqzrkksp50gaw490qgy99cwf4&#45;wget&#45;1.21.3&#45;&gt;/nix/store/4mxnw95jcm5a27qk60z7yc0gvxp42b9a&#45;openssl&#45;3.0.7 -->
<g id="edge3" class="edge">
<title>/nix/store/3cpw8kzaqzrkksp50gaw490qgy99cwf4&#45;wget&#45;1.21.3&#45;&gt;/nix/store/4mxnw95jcm5a27qk60z7yc0gvxp42b9a&#45;openssl&#45;3.0.7</title>
<path fill="none" stroke="black" d="M129.28,-160.85C153.42,-163.81 181.18,-167.23 206.51,-170.35"/>
<polygon fill="black" stroke="black" points="206.1,-173.82 216.46,-171.57 206.96,-166.87 206.1,-173.82"/>
</g>
<!-- /nix/store/1dgws25664p544znpc6f1nh9xmjf4ykc&#45;pcre&#45;8.45 -->
<g id="node5" class="node">
<title>/nix/store/1dgws25664p544znpc6f1nh9xmjf4ykc&#45;pcre&#45;8.45</title>
<path fill="#eeeeee" stroke="black" d="M330,-144C330,-144 242,-144 242,-144 236,-144 230,-138 230,-132 230,-132 230,-120 230,-120 230,-114 236,-108 242,-108 242,-108 330,-108 330,-108 336,-108 342,-114 342,-120 342,-120 342,-132 342,-132 342,-138 336,-144 330,-144"/>
<text text-anchor="middle" x="286" y="-122.3" font-family="Times,serif" font-size="14.00">pcre&#45;8.45</text>
</g>
<!-- /nix/store/3cpw8kzaqzrkksp50gaw490qgy99cwf4&#45;wget&#45;1.21.3&#45;&gt;/nix/store/1dgws25664p544znpc6f1nh9xmjf4ykc&#45;pcre&#45;8.45 -->
<g id="edge4" class="edge">
<title>/nix/store/3cpw8kzaqzrkksp50gaw490qgy99cwf4&#45;wget&#45;1.21.3&#45;&gt;/nix/store/1dgws25664p544znpc6f1nh9xmjf4ykc&#45;pcre&#45;8.45</title>
<path fill="none" stroke="black" d="M129.28,-145.15C157.69,-141.66 191.12,-137.55 219.7,-134.03"/>
<polygon fill="black" stroke="black" points="220.5,-137.46 229.99,-132.77 219.64,-130.51 220.5,-137.46"/>
</g>
<!-- /nix/store/6fs8xlglag611gxmrzyc7ddfv6lbz77d&#45;util&#45;linux&#45;minimal&#45;2.38.1&#45;lib -->
<g id="node6" class="node">
<title>/nix/store/6fs8xlglag611gxmrzyc7ddfv6lbz77d&#45;util&#45;linux&#45;minimal&#45;2.38.1&#45;lib</title>
<path fill="#eeeeee" stroke="black" d="M395,-90C395,-90 177,-90 177,-90 171,-90 165,-84 165,-78 165,-78 165,-66 165,-66 165,-60 171,-54 177,-54 177,-54 395,-54 395,-54 401,-54 407,-60 407,-66 407,-66 407,-78 407,-78 407,-84 401,-90 395,-90"/>
<text text-anchor="middle" x="286" y="-68.3" font-family="Times,serif" font-size="14.00">util&#45;linux&#45;minimal&#45;2.38.1&#45;lib</text>
</g>
<!-- /nix/store/3cpw8kzaqzrkksp50gaw490qgy99cwf4&#45;wget&#45;1.21.3&#45;&gt;/nix/store/6fs8xlglag611gxmrzyc7ddfv6lbz77d&#45;util&#45;linux&#45;minimal&#45;2.38.1&#45;lib -->
<g id="edge5" class="edge">
<title>/nix/store/3cpw8kzaqzrkksp50gaw490qgy99cwf4&#45;wget&#45;1.21.3&#45;&gt;/nix/store/6fs8xlglag611gxmrzyc7ddfv6lbz77d&#45;util&#45;linux&#45;minimal&#45;2.38.1&#45;lib</title>
<path fill="none" stroke="black" d="M93.67,-134.98C113.07,-123.27 139.79,-108.47 165,-99 170.77,-96.83 176.77,-94.81 182.87,-92.93"/>
<polygon fill="black" stroke="black" points="183.91,-96.27 192.51,-90.08 181.93,-89.55 183.91,-96.27"/>
</g>
<!-- /nix/store/026hln0aq1hyshaxsdvhg0kmcm6yf45r&#45;zlib&#45;1.2.13 -->
<g id="node7" class="node">
<title>/nix/store/026hln0aq1hyshaxsdvhg0kmcm6yf45r&#45;zlib&#45;1.2.13</title>
<path fill="#eeeeee" stroke="black" d="M334,-36C334,-36 238,-36 238,-36 232,-36 226,-30 226,-24 226,-24 226,-12 226,-12 226,-6 232,0 238,0 238,0 334,0 334,0 340,0 346,-6 346,-12 346,-12 346,-24 346,-24 346,-30 340,-36 334,-36"/>
<text text-anchor="middle" x="286" y="-14.3" font-family="Times,serif" font-size="14.00">zlib&#45;1.2.13</text>
</g>
<!-- /nix/store/3cpw8kzaqzrkksp50gaw490qgy99cwf4&#45;wget&#45;1.21.3&#45;&gt;/nix/store/026hln0aq1hyshaxsdvhg0kmcm6yf45r&#45;zlib&#45;1.2.13 -->
<g id="edge6" class="edge">
<title>/nix/store/3cpw8kzaqzrkksp50gaw490qgy99cwf4&#45;wget&#45;1.21.3&#45;&gt;/nix/store/026hln0aq1hyshaxsdvhg0kmcm6yf45r&#45;zlib&#45;1.2.13</title>
<path fill="none" stroke="black" d="M76.91,-134.94C93.32,-110.56 125.93,-67.57 165,-45 180.38,-36.12 198.43,-30.15 215.8,-26.15"/>
<polygon fill="black" stroke="black" points="216.86,-29.51 225.92,-24.02 215.41,-22.66 216.86,-29.51"/>
</g>
</g>
</svg>
