<?xml version="1.0" encoding="UTF-8" standalone="no"?>
<!DOCTYPE svg PUBLIC "-//W3C//DTD SVG 1.1//EN"
 "http://www.w3.org/Graphics/SVG/1.1/DTD/svg11.dtd">
<!-- Generated by graphviz version 2.43.0 (0)
 -->
<!-- Title: %3 Pages: 1 -->
<svg width="687pt" height="314pt"
 viewBox="0.00 0.00 687.00 314.00" xmlns="http://www.w3.org/2000/svg" xmlns:xlink="http://www.w3.org/1999/xlink">
<g id="graph0" class="graph" transform="scale(1 1) rotate(0) translate(4 310)">
<title>%3</title>
<polygon fill="white" stroke="transparent" points="-4,4 -4,-310 683,-310 683,4 -4,4"/>
<!-- /nix/store/4nlgxhb09sdr51nc9hdm8az5b08vzkgx&#45;glibc&#45;2.35&#45;163 -->
<g id="node1" class="node">
<title>/nix/store/4nlgxhb09sdr51nc9hdm8az5b08vzkgx&#45;glibc&#45;2.35&#45;163</title>
<path fill="#eeeeee" stroke="black" d="M646.5,-306C646.5,-306 364.5,-306 364.5,-306 358.5,-306 352.5,-300 352.5,-294 352.5,-294 352.5,-282 352.5,-282 352.5,-276 358.5,-270 364.5,-270 364.5,-270 646.5,-270 646.5,-270 652.5,-270 658.5,-276 658.5,-282 658.5,-282 658.5,-294 658.5,-294 658.5,-300 652.5,-306 646.5,-306"/>
<text text-anchor="start" x="454" y="-288.8" font-family="Times,serif" font-size="14.00">glibc&#45;2.35&#45;163</text>
<text text-anchor="start" x="374.5" y="-279.6" font-family="Times,serif" font-size="8.00">/nix/store/4nlgxhb09sdr51nc9hdm8az5b08vzkgx&#45;glibc&#45;2.35&#45;163</text>
</g>
<!-- /nix/store/3cpw8kzaqzrkksp50gaw490qgy99cwf4&#45;wget&#45;1.21.3 -->
<g id="node2" class="node">
<title>/nix/store/3cpw8kzaqzrkksp50gaw490qgy99cwf4&#45;wget&#45;1.21.3</title>
<path fill="#eeeeee" stroke="black" d="M284,-171C284,-171 12,-171 12,-171 6,-171 0,-165 0,-159 0,-159 0,-147 0,-147 0,-141 6,-135 12,-135 12,-135 284,-135 284,-135 290,-135 296,-141 296,-147 296,-147 296,-159 296,-159 296,-165 290,-171 284,-171"/>
<text text-anchor="start" x="105.5" y="-153.8" font-family="Times,serif" font-size="14.00">wget&#45;1.21.3</text>
<text text-anchor="start" x="22" y="-144.6" font-family="Times,serif" font-size="8.00">/nix/store/3cpw8kzaqzrkksp50gaw490qgy99cwf4&#45;wget&#45;1.21.3</text>
</g>
<!-- /nix/store/3cpw8kzaqzrkksp50gaw490qgy99cwf4&#45;wget&#45;1.21.3&#45;&gt;/nix/store/4nlgxhb09sdr51nc9hdm8az5b08vzkgx&#45;glibc&#45;2.35&#45;163 -->
<g id="edge1" class="edge">
<title>/nix/store/3cpw8kzaqzrkksp50gaw490qgy99cwf4&#45;wget&#45;1.21.3&#45;&gt;/nix/store/4nlgxhb09sdr51nc9hdm8az5b08vzkgx&#45;glibc&#45;2.35&#45;163</title>
<path fill="none" stroke="black" d="M172.68,-171C206.22,-195.53 270.36,-238.9 332,-261 338.33,-263.27 344.85,-265.35 351.49,-267.25"/>
<polygon fill="black" stroke="black" points="350.73,-270.67 361.3,-269.91 352.56,-263.91 350.73,-270.67"/>
</g>
<!-- /nix/store/5mh5019jigj0k14rdnjam1xwk5avn1id&#45;libidn2&#45;2.3.2 -->
<g id="node3" class="node">
<title>/nix/store/5mh5019jigj0k14rdnjam1xwk5avn1id&#45;libidn2&#45;2.3.2</title>
<path fill="#eeeeee" stroke="black" d="M639.5,-252C639.5,-252 371.5,-252 371.5,-252 365.5,-252 359.5,-246 359.5,-240 359.5,-240 359.5,-228 359.5,-228 359.5,-222 365.5,-216 371.5,-216 371.5,-216 639.5,-216 639.5,-216 645.5,-216 651.5,-222 651.5,-228 651.5,-228 651.5,-240 651.5,-240 651.5,-246 645.5,-252 639.5,-252"/>
<text text-anchor="start" x="460" y="-234.8" font-family="Times,serif" font-size="14.00">libidn2&#45;2.3.2</text>
<text text-anchor="start" x="381.5" y="-225.6" font-family="Times,serif" font-size="8.00">/nix/store/5mh5019jigj0k14rdnjam1xwk5avn1id&#45;libidn2&#45;2.3.2</text>
</g>
<!-- /nix/store/3cpw8kzaqzrkksp50gaw490qgy99cwf4&#45;wget&#45;1.21.3&#45;&gt;/nix/store/5mh5019jigj0k14rdnjam1xwk5avn1id&#45;libidn2&#45;2.3.2 -->
<g id="edge2" class="edge">
<title>/nix/store/3cpw8kzaqzrkksp50gaw490qgy99cwf4&#45;wget&#45;1.21.3&#45;&gt;/nix/store/5mh5019jigj0k14rdnjam1xwk5avn1id&#45;libidn2&#45;2.3.2</title>
<path fill="none" stroke="black" d="M203.36,-171.09C239.51,-182.61 288.21,-197.16 332,-207 343.32,-209.54 355.11,-211.93 366.98,-214.15"/>
<polygon fill="black" stroke="black" points="366.5,-217.62 376.96,-215.98 367.76,-210.74 366.5,-217.62"/>
</g>
<!-- /nix/store/4mxnw95jcm5a27qk60z7yc0gvxp42b9a&#45;openssl&#45;3.0.7 -->
<g id="node4" class="node">
<title>/nix/store/4mxnw95jcm5a27qk60z7yc0gvxp42b9a&#45;openssl&#45;3.0.7</title>
<path fill="#eeeeee" stroke="black" d="M645.5,-198C645.5,-198 365.5,-198 365.5,-198 359.5,-198 353.5,-192 353.5,-186 353.5,-186 353.5,-174 353.5,-174 353.5,-168 359.5,-162 365.5,-162 365.5,-162 645.5,-162 645.5,-162 651.5,-162 657.5,-168 657.5,-174 657.5,-174 657.5,-186 657.5,-186 657.5,-192 651.5,-198 645.5,-198"/>
<text text-anchor="start" x="458" y="-180.8" font-family="Times,serif" font-size="14.00">openssl&#45;3.0.7</text>
<text text-anchor="start" x="375.5" y="-171.6" font-family="Times,serif" font-size="8.00">/nix/store/4mxnw95jcm5a27qk60z7yc0gvxp42b9a&#45;openssl&#45;3.0.7</text>
</g>
<!-- /nix/store/3cpw8kzaqzrkksp50gaw490qgy99cwf4&#45;wget&#45;1.21.3&#45;&gt;/nix/store/4mxnw95jcm5a27qk60z7yc0gvxp42b9a&#45;openssl&#45;3.0.7 -->
<g id="edge3" class="edge">
<title>/nix/store/3cpw8kzaqzrkksp50gaw490qgy99cwf4&#45;wget&#45;1.21.3&#45;&gt;/nix/store/4mxnw95jcm5a27qk60z7yc0gvxp42b9a&#45;openssl&#45;3.0.7</title>
<path fill="none" stroke="black" d="M296.16,-164.18C311.67,-165.36 327.51,-166.56 343.17,-167.75"/>
<polygon fill="black" stroke="black" points="343.19,-171.26 353.43,-168.53 343.72,-164.28 343.19,-171.26"/>
</g>
<!-- /nix/store/1dgws25664p544znpc6f1nh9xmjf4ykc&#45;pcre&#45;8.45 -->
<g id="node5" class="node">
<title>/nix/store/1dgws25664p544znpc6f1nh9xmjf4ykc&#45;pcre&#45;8.45</title>
<path fill="#eeeeee" stroke="black" d="M636,-144C636,-144 375,-144 375,-144 369,-144 363,-138 363,-132 363,-132 363,-120 363,-120 363,-114 369,-108 375,-108 375,-108 636,-108 636,-108 642,-108 648,-114 648,-120 648,-120 648,-132 648,-132 648,-138 642,-144 636,-144"/>
<text text-anchor="start" x="471.5" y="-126.8" font-family="Times,serif" font-size="14.00">pcre&#45;8.45</text>
<text text-anchor="start" x="385" y="-117.6" font-family="Times,serif" font-size="8.00">/nix/store/1dgws25664p544znpc6f1nh9xmjf4ykc&#45;pcre&#45;8.45</text>
</g>
<!-- /nix/store/3cpw8kzaqzrkksp50gaw490qgy99cwf4&#45;wget&#45;1.21.3&#45;&gt;/nix/store/1dgws25664p544znpc6f1nh9xmjf4ykc&#45;pcre&#45;8.45 -->
<g id="edge4" class="edge">
<title>/nix/store/3cpw8kzaqzrkksp50gaw490qgy99cwf4&#45;wget&#45;1.21.3&#45;&gt;/nix/store/1dgws25664p544znpc6f1nh9xmjf4ykc&#45;pcre&#45;8.45</title>
<path fill="none" stroke="black" d="M296.16,-141.82C314.86,-140.4 334.03,-138.95 352.8,-137.52"/>
<polygon fill="black" stroke="black" points="353.17,-141 362.88,-136.76 352.64,-134.02 353.17,-141"/>
</g>
<!-- /nix/store/6fs8xlglag611gxmrzyc7ddfv6lbz77d&#45;util&#45;linux&#45;minimal&#45;2.38.1&#45;lib -->
<g id="node6" class="node">
<title>/nix/store/6fs8xlglag611gxmrzyc7ddfv6lbz77d&#45;util&#45;linux&#45;minimal&#45;2.38.1&#45;lib</title>
<path fill="#eeeeee" stroke="black" d="M667,-90C667,-90 344,-90 344,-90 338,-90 332,-84 332,-78 332,-78 332,-66 332,-66 332,-60 338,-54 344,-54 344,-54 667,-54 667,-54 673,-54 679,-60 679,-66 679,-66 679,-78 679,-78 679,-84 673,-90 667,-90"/>
<text text-anchor="start" x="406.5" y="-72.8" font-family="Times,serif" font-size="14.00">util&#45;linux&#45;minimal&#45;2.38.1&#45;lib</text>
<text text-anchor="start" x="354" y="-63.6" font-family="Times,serif" font-size="8.00">/nix/store/6fs8xlglag611gxmrzyc7ddfv6lbz77d&#45;util&#45;linux&#45;minimal&#45;2.38.1&#45;lib</text>
</g>
<!-- /nix/store/3cpw8kzaqzrkksp50gaw490qgy99cwf4&#45;wget&#45;1.21.3&#45;&gt;/nix/store/6fs8xlglag611gxmrzyc7ddfv6lbz77d&#45;util&#45;linux&#45;minimal&#45;2.38.1&#45;lib -->
<g id="edge5" class="edge">
<title>/nix/store/3cpw8kzaqzrkksp50gaw490qgy99cwf4&#45;wget&#45;1.21.3&#45;&gt;/nix/store/6fs8xlglag611gxmrzyc7ddfv6lbz77d&#45;util&#45;linux&#45;minimal&#45;2.38.1&#45;lib</title>
<path fill="none" stroke="black" d="M203.36,-134.91C239.51,-123.39 288.21,-108.84 332,-99 343.32,-96.46 355.11,-94.07 366.98,-91.85"/>
<polygon fill="black" stroke="black" points="367.76,-95.26 376.96,-90.02 366.5,-88.38 367.76,-95.26"/>
</g>
<!-- /nix/store/026hln0aq1hyshaxsdvhg0kmcm6yf45r&#45;zlib&#45;1.2.13 -->
<g id="node7" class="node">
<title>/nix/store/026hln0aq1hyshaxsdvhg0kmcm6yf45r&#45;zlib&#45;1.2.13</title>
<path fill="#eeeeee" stroke="black" d="M637.5,-36C637.5,-36 373.5,-36 373.5,-36 367.5,-36 361.5,-30 361.5,-24 361.5,-24 361.5,-12 361.5,-12 361.5,-6 367.5,0 373.5,0 373.5,0 637.5,0 637.5,0 643.5,0 649.5,-6 649.5,-12 649.5,-12 649.5,-24 649.5,-24 649.5,-30 643.5,-36 637.5,-36"/>
<text text-anchor="start" x="467.5" y="-18.8" font-family="Times,serif" font-size="14.00">zlib&#45;1.2.13</text>
<text text-anchor="start" x="383.5" y="-9.6" font-family="Times,serif" font-size="8.00">/nix/store/026hln0aq1hyshaxsdvhg0kmcm6yf45r&#45;zlib&#45;1.2.13</text>
</g>
<!-- /nix/store/3cpw8kzaqzrkksp50gaw490qgy99cwf4&#45;wget&#45;1.21.3&#45;&gt;/nix/store/026hln0aq1hyshaxsdvhg0kmcm6yf45r&#45;zlib&#45;1.2.13 -->
<g id="edge6" class="edge">
<title>/nix/store/3cpw8kzaqzrkksp50gaw490qgy99cwf4&#45;wget&#45;1.21.3&#45;&gt;/nix/store/026hln0aq1hyshaxsdvhg0kmcm6yf45r&#45;zlib&#45;1.2.13</title>
<path fill="none" stroke="black" d="M172.68,-135C206.22,-110.47 270.36,-67.1 332,-45 338.33,-42.73 344.85,-40.65 351.49,-38.75"/>
<polygon fill="black" stroke="black" points="352.56,-42.09 361.3,-36.09 350.73,-35.33 352.56,-42.09"/>
</g>
</g>
</svg>
