<?xml version="1.0" encoding="UTF-8" standalone="no"?>
<!DOCTYPE svg PUBLIC "-//W3C//DTD SVG 1.1//EN"
 "http://www.w3.org/Graphics/SVG/1.1/DTD/svg11.dtd">
<!-- Generated by graphviz version 2.43.0 (0)
 -->
<!-- Title: %3 Pages: 1 -->
<svg width="598pt" height="241pt"
 viewBox="0.00 0.00 598.00 241.29" xmlns="http://www.w3.org/2000/svg" xmlns:xlink="http://www.w3.org/1999/xlink">
<g id="graph0" class="graph" transform="scale(1 1) rotate(0) translate(4 237.29)">
<title>%3</title>
<polygon fill="white" stroke="transparent" points="-4,4 -4,-237.29 594,-237.29 594,4 -4,4"/>
<!-- /nix/store/4nlgxhb09sdr51nc9hdm8az5b08vzkgx&#45;glibc&#45;2.35&#45;163 -->
<g id="node1" class="node">
<title>/nix/store/4nlgxhb09sdr51nc9hdm8az5b08vzkgx&#45;glibc&#45;2.35&#45;163</title>
<path fill="#eeeeee" stroke="black" d="M578,-144C578,-144 455,-144 455,-144 449,-144 443,-138 443,-132 443,-132 443,-120 443,-120 443,-114 449,-108 455,-108 455,-108 578,-108 578,-108 584,-108 590,-114 590,-120 590,-120 590,-132 590,-132 590,-138 584,-144 578,-144"/>
<text text-anchor="middle" x="516.5" y="-122.3" font-family="Times,serif" font-size="14.00">glibc&#45;2.35&#45;163</text>
</g>
<!-- /nix/store/4mxnw95jcm5a27qk60z7yc0gvxp42b9a&#45;openssl&#45;3.0.7 -->
<g id="node2" class="node">
<title>/nix/store/4mxnw95jcm5a27qk60z7yc0gvxp42b9a&#45;openssl&#45;3.0.7</title>
<path fill="#eeeeee" stroke="black" d="M343.5,-198C343.5,-198 228.5,-198 228.5,-198 222.5,-198 216.5,-192 216.5,-186 216.5,-186 216.5,-174 216.5,-174 216.5,-168 222.5,-162 228.5,-162 228.5,-162 343.5,-162 343.5,-162 349.5,-162 355.5,-168 355.5,-174 355.5,-174 355.5,-186 355.5,-186 355.5,-192 349.5,-198 343.5,-198"/>
<text text-anchor="middle" x="286" y="-176.3" font-family="Times,serif" font-size="14.00">openssl&#45;3.0.7</text>
</g>
<!-- /nix/store/4mxnw95jcm5a27qk60z7yc0gvxp42b9a&#45;openssl&#45;3.0.7&#45;&gt;/nix/store/4nlgxhb09sdr51nc9hdm8az5b08vzkgx&#45;glibc&#45;2.35&#45;163 -->
<g id="edge1" class="edge">
<title>/nix/store/4mxnw95jcm5a27qk60z7yc0gvxp42b9a&#45;openssl&#45;3.0.7&#45;&gt;/nix/store/4nlgxhb09sdr51nc9hdm8az5b08vzkgx&#45;glibc&#45;2.35&#45;163</title>
<path fill="none" stroke="black" d="M355.6,-164.85C372.42,-161.05 390.38,-156.94 407,-153 415.81,-150.91 425.01,-148.69 434.16,-146.45"/>
<polygon fill="black" stroke="black" points="435.18,-149.81 444.06,-144.02 433.51,-143.01 435.18,-149.81"/>
</g>
<!-- /nix/store/3cpw8kzaqzrkksp50gaw490qgy99cwf4&#45;wget&#45;1.21.3 -->
<g id="node3" class="node">
<title>/nix/store/3cpw8kzaqzrkksp50gaw490qgy99cwf4&#45;wget&#45;1.21.3</title>
<path fill="#eeeeee" stroke="black" d="M117,-144C117,-144 12,-144 12,-144 6,-144 0,-138 0,-132 0,-132 0,-120 0,-120 0,-114 6,-108 12,-108 12,-108 117,-108 117,-108 123,-108 129,-114 129,-120 129,-120 129,-132 129,-132 129,-138 123,-144 117,-144"/>
<text text-anchor="middle" x="64.5" y="-122.3" font-family="Times,serif" font-size="14.00">wget&#45;1.21.3</text>
</g>
<!-- /nix/store/3cpw8kzaqzrkksp50gaw490qgy99cwf4&#45;wget&#45;1.21.3&#45;&gt;/nix/store/4nlgxhb09sdr51nc9hdm8az5b08vzkgx&#45;glibc&#45;2.35&#45;163 -->
<g id="edge7" class="edge">
<title>/nix/store/3cpw8kzaqzrkksp50gaw490qgy99cwf4&#45;wget&#45;1.21.3&#45;&gt;/nix/store/4nlgxhb09sdr51nc9hdm8az5b08vzkgx&#45;glibc&#45;2.35&#45;163</title>
<path fill="none" stroke="black" d="M80.51,-144.04C98.29,-163.86 129.95,-194.54 165,-207 266.34,-243.03 304.93,-240.9 407,-207 440.04,-196.03 471.16,-170.65 491.52,-151.2"/>
<polygon fill="black" stroke="black" points="494.1,-153.58 498.79,-144.08 489.2,-148.58 494.1,-153.58"/>
</g>
<!-- /nix/store/3cpw8kzaqzrkksp50gaw490qgy99cwf4&#45;wget&#45;1.21.3&#45;&gt;/nix/store/4mxnw95jcm5a27qk60z7yc0gvxp42b9a&#45;openssl&#45;3.0.7 -->
<g id="edge2" class="edge">
<title>/nix/store/3cpw8kzaqzrkksp50gaw490qgy99cwf4&#45;wget&#45;1.21.3&#45;&gt;/nix/store/4mxnw95jcm5a27qk60z7yc0gvxp42b9a&#45;openssl&#45;3.0.7</title>
<path fill="none" stroke="black" d="M129.09,-143.7C141,-146.89 153.36,-150.11 165,-153 178.34,-156.31 192.56,-159.66 206.38,-162.83"/>
<polygon fill="black" stroke="black" points="205.82,-166.29 216.34,-165.09 207.37,-159.46 205.82,-166.29"/>
</g>
<!-- /nix/store/1dgws25664p544znpc6f1nh9xmjf4ykc&#45;pcre&#45;8.45 -->
<g id="node4" class="node">
<title>/nix/store/1dgws25664p544znpc6f1nh9xmjf4ykc&#45;pcre&#45;8.45</title>
<path fill="#eeeeee" stroke="black" d="M330,-144C330,-144 242,-144 242,-144 236,-144 230,-138 230,-132 230,-132 230,-120 230,-120 230,-114 236,-108 242,-108 242,-108 330,-108 330,-108 336,-108 342,-114 342,-120 342,-120 342,-132 342,-132 342,-138 336,-144 330,-144"/>
<text text-anchor="middle" x="286" y="-122.3" font-family="Times,serif" font-size="14.00">pcre&#45;8.45</text>
</g>
<!-- /nix/store/3cpw8kzaqzrkksp50gaw490qgy99cwf4&#45;wget&#45;1.21.3&#45;&gt;/nix/store/1dgws25664p544znpc6f1nh9xmjf4ykc&#45;pcre&#45;8.45 -->
<g id="edge4" class="edge">
<title>/nix/store/3cpw8kzaqzrkksp50gaw490qgy99cwf4&#45;wget&#45;1.21.3&#45;&gt;/nix/store/1dgws25664p544znpc6f1nh9xmjf4ykc&#45;pcre&#45;8.45</title>
<path fill="none" stroke="black" d="M129.28,-126C157.69,-126 191.12,-126 219.7,-126"/>
<polygon fill="black" stroke="black" points="219.99,-129.5 229.99,-126 219.99,-122.5 219.99,-129.5"/>
</g>
<!-- /nix/store/6fs8xlglag611gxmrzyc7ddfv6lbz77d&#45;util&#45;linux&#45;minimal&#45;2.38.1&#45;lib -->
<g id="node5" class="node">
<title>/nix/store/6fs8xlglag611gxmrzyc7ddfv6lbz77d&#45;util&#45;linux&#45;minimal&#45;2.38.1&#45;lib</title>
<path fill="#eeeeee" stroke="black" d="M395,-90C395,-90 177,-90 177,-90 171,-90 165,-84 165,-78 165,-78 165,-66 165,-66 165,-60 171,-54 177,-54 177,-54 395,-54 395,-54 401,-54 407,-60 407,-66 407,-66 407,-78 407,-78 407,-84 401,-90 395,-90"/>
<text text-anchor="middle" x="286" y="-68.3" font-family="Times,serif" font-size="14.00">util&#45;linux&#45;minimal&#45;2.38.1&#45;lib</text>
</g>
<!-- /nix/store/3cpw8kzaqzrkksp50gaw490qgy99cwf4&#45;wget&#45;1.21.3&#45;&gt;/nix/store/6fs8xlglag611gxmrzyc7ddfv6lbz77d&#45;util&#45;linux&#45;minimal&#45;2.38.1&#45;lib -->
<g id="edge6" class="edge">
<title>/nix/store/3cpw8kzaqzrkksp50gaw490qgy99cwf4&#45;wget&#45;1.21.3&#45;&gt;/nix/store/6fs8xlglag611gxmrzyc7ddfv6lbz77d&#45;util&#45;linux&#45;minimal&#45;2.38.1&#45;lib</title>
<path fill="none" stroke="black" d="M129.09,-108.3C141,-105.11 153.36,-101.89 165,-99 174,-96.77 183.4,-94.52 192.8,-92.32"/>
<polygon fill="black" stroke="black" points="193.64,-95.72 202.58,-90.04 192.05,-88.9 193.64,-95.72"/>
</g>
<!-- /nix/store/026hln0aq1hyshaxsdvhg0kmcm6yf45r&#45;zlib&#45;1.2.13 -->
<g id="node6" class="node">
<title>/nix/store/026hln0aq1hyshaxsdvhg0kmcm6yf45r&#45;zlib&#45;1.2.13</title>
<path fill="#eeeeee" stroke="black" d="M334,-36C334,-36 238,-36 238,-36 232,-36 226,-30 226,-24 226,-24 226,-12 226,-12 226,-6 232,0 238,0 238,0 334,0 334,0 340,0 346,-6 346,-12 346,-12 346,-24 346,-24 346,-30 340,-36 334,-36"/>
<text text-anchor="middle" x="286" y="-14.3" font-family="Times,serif" font-size="14.00">zlib&#45;1.2.13</text>
</g>
<!-- /nix/store/3cpw8kzaqzrkksp50gaw490qgy99cwf4&#45;wget&#45;1.21.3&#45;&gt;/nix/store/026hln0aq1hyshaxsdvhg0kmcm6yf45r&#45;zlib&#45;1.2.13 -->
<g id="edge9" class="edge">
<title>/nix/store/3cpw8kzaqzrkksp50gaw490qgy99cwf4&#45;wget&#45;1.21.3&#45;&gt;/nix/store/026hln0aq1hyshaxsdvhg0kmcm6yf45r&#45;zlib&#45;1.2.13</title>
<path fill="none" stroke="black" d="M82.42,-107.98C100.93,-89.37 132.34,-60.87 165,-45 180.73,-37.35 198.69,-31.84 215.83,-27.87"/>
<polygon fill="black" stroke="black" points="216.77,-31.25 225.8,-25.71 215.29,-24.41 216.77,-31.25"/>
</g>
<!-- /nix/store/1dgws25664p544znpc6f1nh9xmjf4ykc&#45;pcre&#45;8.45&#45;&gt;/nix/store/4nlgxhb09sdr51nc9hdm8az5b08vzkgx&#45;glibc&#45;2.35&#45;163 -->
<g id="edge3" class="edge">
<title>/nix/store/1dgws25664p544znpc6f1nh9xmjf4ykc&#45;pcre&#45;8.45&#45;&gt;/nix/store/4nlgxhb09sdr51nc9hdm8az5b08vzkgx&#45;glibc&#45;2.35&#45;163</title>
<path fill="none" stroke="black" d="M342.02,-126C369.19,-126 402.54,-126 432.71,-126"/>
<polygon fill="black" stroke="black" points="432.81,-129.5 442.81,-126 432.81,-122.5 432.81,-129.5"/>
</g>
<!-- /nix/store/6fs8xlglag611gxmrzyc7ddfv6lbz77d&#45;util&#45;linux&#45;minimal&#45;2.38.1&#45;lib&#45;&gt;/nix/store/4nlgxhb09sdr51nc9hdm8az5b08vzkgx&#45;glibc&#45;2.35&#45;163 -->
<g id="edge5" class="edge">
<title>/nix/store/6fs8xlglag611gxmrzyc7ddfv6lbz77d&#45;util&#45;linux&#45;minimal&#45;2.38.1&#45;lib&#45;&gt;/nix/store/4nlgxhb09sdr51nc9hdm8az5b08vzkgx&#45;glibc&#45;2.35&#45;163</title>
<path fill="none" stroke="black" d="M368.39,-90.05C381.32,-92.99 394.53,-96.05 407,-99 415.81,-101.09 425.01,-103.31 434.16,-105.55"/>
<polygon fill="black" stroke="black" points="433.51,-108.99 444.06,-107.98 435.18,-102.19 433.51,-108.99"/>
</g>
<!-- /nix/store/026hln0aq1hyshaxsdvhg0kmcm6yf45r&#45;zlib&#45;1.2.13&#45;&gt;/nix/store/4nlgxhb09sdr51nc9hdm8az5b08vzkgx&#45;glibc&#45;2.35&#45;163 -->
<g id="edge8" class="edge">
<title>/nix/store/026hln0aq1hyshaxsdvhg0kmcm6yf45r&#45;zlib&#45;1.2.13&#45;&gt;/nix/store/4nlgxhb09sdr51nc9hdm8az5b08vzkgx&#45;glibc&#45;2.35&#45;163</title>
<path fill="none" stroke="black" d="M346.29,-26.22C366.17,-30.31 388.09,-36.3 407,-45 437.68,-59.12 468.09,-82.89 488.87,-101.05"/>
<polygon fill="black" stroke="black" points="486.55,-103.67 496.35,-107.7 491.2,-98.44 486.55,-103.67"/>
</g>
</g>
</svg>
