<?xml version="1.0" encoding="UTF-8" standalone="no"?>
<!DOCTYPE svg PUBLIC "-//W3C//DTD SVG 1.1//EN"
 "http://www.w3.org/Graphics/SVG/1.1/DTD/svg11.dtd">
<!-- Generated by graphviz version 2.43.0 (0)
 -->
<!-- Title: %3 Pages: 1 -->
<svg width="578pt" height="800pt"
 viewBox="0.00 0.00 578.00 800.00" xmlns="http://www.w3.org/2000/svg" xmlns:xlink="http://www.w3.org/1999/xlink">
<g id="graph0" class="graph" transform="scale(1 1) rotate(0) translate(4 796)">
<title>%3</title>
<polygon fill="white" stroke="transparent" points="-4,4 -4,-796 574,-796 574,4 -4,4"/>
<!-- /nix/store/3sjd4vvbdssljiy45a9igjy9kkxd2skq&#45;bash&#45;5.1&#45;p16.drv -->
<g id="node1" class="node">
<title>/nix/store/3sjd4vvbdssljiy45a9igjy9kkxd2skq&#45;bash&#45;5.1&#45;p16.drv</title>
<path fill="#eeeeee" stroke="black" d="M452.5,-792C452.5,-792 311.5,-792 311.5,-792 305.5,-792 299.5,-786 299.5,-780 299.5,-780 299.5,-768 299.5,-768 299.5,-762 305.5,-756 311.5,-756 311.5,-756 452.5,-756 452.5,-756 458.5,-756 464.5,-762 464.5,-768 464.5,-768 464.5,-780 464.5,-780 464.5,-786 458.5,-792 452.5,-792"/>
<text text-anchor="middle" x="382" y="-770.3" font-family="Times,serif" font-size="14.00">bash&#45;5.1&#45;p16.drv</text>
</g>
<!-- /nix/store/1kd6cas7lxhccf7bv1v37wvwmknahfrj&#45;wget&#45;1.21.3.drv -->
<g id="node2" class="node">
<title>/nix/store/1kd6cas7lxhccf7bv1v37wvwmknahfrj&#45;wget&#45;1.21.3.drv</title>
<path fill="#eeeeee" stroke="black" d="M146,-414C146,-414 12,-414 12,-414 6,-414 0,-408 0,-402 0,-402 0,-390 0,-390 0,-384 6,-378 12,-378 12,-378 146,-378 146,-378 152,-378 158,-384 158,-390 158,-390 158,-402 158,-402 158,-408 152,-414 146,-414"/>
<text text-anchor="middle" x="79" y="-392.3" font-family="Times,serif" font-size="14.00">wget&#45;1.21.3.drv</text>
</g>
<!-- /nix/store/1kd6cas7lxhccf7bv1v37wvwmknahfrj&#45;wget&#45;1.21.3.drv&#45;&gt;/nix/store/3sjd4vvbdssljiy45a9igjy9kkxd2skq&#45;bash&#45;5.1&#45;p16.drv -->
<g id="edge1" class="edge">
<title>/nix/store/1kd6cas7lxhccf7bv1v37wvwmknahfrj&#45;wget&#45;1.21.3.drv&#45;&gt;/nix/store/3sjd4vvbdssljiy45a9igjy9kkxd2skq&#45;bash&#45;5.1&#45;p16.drv</title>
<path fill="none" stroke="black" d="M79.73,-414.11C79.93,-472.74 89.14,-658.66 194,-747 220.03,-768.93 255.68,-777.52 288.88,-779.98"/>
<polygon fill="black" stroke="black" points="288.91,-783.48 299.09,-780.55 289.3,-776.49 288.91,-783.48"/>
</g>
<!-- /nix/store/9krlzvny65gdc8s7kpb6lkx8cd02c25b&#45;default&#45;builder.sh -->
<g id="node3" class="node">
<title>/nix/store/9krlzvny65gdc8s7kpb6lkx8cd02c25b&#45;default&#45;builder.sh</title>
<path fill="#eeeeee" stroke="black" d="M455,-738C455,-738 309,-738 309,-738 303,-738 297,-732 297,-726 297,-726 297,-714 297,-714 297,-708 303,-702 309,-702 309,-702 455,-702 455,-702 461,-702 467,-708 467,-714 467,-714 467,-726 467,-726 467,-732 461,-738 455,-738"/>
<text text-anchor="middle" x="382" y="-716.3" font-family="Times,serif" font-size="14.00">default&#45;builder.sh</text>
</g>
<!-- /nix/store/1kd6cas7lxhccf7bv1v37wvwmknahfrj&#45;wget&#45;1.21.3.drv&#45;&gt;/nix/store/9krlzvny65gdc8s7kpb6lkx8cd02c25b&#45;default&#45;builder.sh -->
<g id="edge2" class="edge">
<title>/nix/store/1kd6cas7lxhccf7bv1v37wvwmknahfrj&#45;wget&#45;1.21.3.drv&#45;&gt;/nix/store/9krlzvny65gdc8s7kpb6lkx8cd02c25b&#45;default&#45;builder.sh</title>
<path fill="none" stroke="black" d="M80.94,-414.31C84.72,-467.14 103.37,-620.63 194,-693 219.79,-713.59 254.19,-722.17 286.45,-725"/>
<polygon fill="black" stroke="black" points="286.62,-728.52 296.84,-725.72 287.11,-721.53 286.62,-728.52"/>
</g>
<!-- /nix/store/dd21232ndpmijxfl9w78y30my3ms3f30&#45;gettext&#45;0.21.drv -->
<g id="node4" class="node">
<title>/nix/store/dd21232ndpmijxfl9w78y30my3ms3f30&#45;gettext&#45;0.21.drv</title>
<path fill="#eeeeee" stroke="black" d="M450.5,-684C450.5,-684 313.5,-684 313.5,-684 307.5,-684 301.5,-678 301.5,-672 301.5,-672 301.5,-660 301.5,-660 301.5,-654 307.5,-648 313.5,-648 313.5,-648 450.5,-648 450.5,-648 456.5,-648 462.5,-654 462.5,-660 462.5,-660 462.5,-672 462.5,-672 462.5,-678 456.5,-684 450.5,-684"/>
<text text-anchor="middle" x="382" y="-662.3" font-family="Times,serif" font-size="14.00">gettext&#45;0.21.drv</text>
</g>
<!-- /nix/store/1kd6cas7lxhccf7bv1v37wvwmknahfrj&#45;wget&#45;1.21.3.drv&#45;&gt;/nix/store/dd21232ndpmijxfl9w78y30my3ms3f30&#45;gettext&#45;0.21.drv -->
<g id="edge3" class="edge">
<title>/nix/store/1kd6cas7lxhccf7bv1v37wvwmknahfrj&#45;wget&#45;1.21.3.drv&#45;&gt;/nix/store/dd21232ndpmijxfl9w78y30my3ms3f30&#45;gettext&#45;0.21.drv</title>
<path fill="none" stroke="black" d="M82.63,-414.32C90.32,-460.51 117.25,-582.12 194,-639 221.59,-659.44 257.87,-667.68 291.14,-670.28"/>
<polygon fill="black" stroke="black" points="291.16,-673.79 301.35,-670.91 291.59,-666.8 291.16,-673.79"/>
</g>
<!-- /nix/store/8lvgaha4ji2khkj8i61c5ji9b2d1ivq4&#45;glibc&#45;iconv&#45;2.35.drv -->
<g id="node5" class="node">
<title>/nix/store/8lvgaha4ji2khkj8i61c5ji9b2d1ivq4&#45;glibc&#45;iconv&#45;2.35.drv</title>
<path fill="#eeeeee" stroke="black" d="M463,-630C463,-630 301,-630 301,-630 295,-630 289,-624 289,-618 289,-618 289,-606 289,-606 289,-600 295,-594 301,-594 301,-594 463,-594 463,-594 469,-594 475,-600 475,-606 475,-606 475,-618 475,-618 475,-624 469,-630 463,-630"/>
<text text-anchor="middle" x="382" y="-608.3" font-family="Times,serif" font-size="14.00">glibc&#45;iconv&#45;2.35.drv</text>
</g>
<!-- /nix/store/1kd6cas7lxhccf7bv1v37wvwmknahfrj&#45;wget&#45;1.21.3.drv&#45;&gt;/nix/store/8lvgaha4ji2khkj8i61c5ji9b2d1ivq4&#45;glibc&#45;iconv&#45;2.35.drv -->
<g id="edge4" class="edge">
<title>/nix/store/1kd6cas7lxhccf7bv1v37wvwmknahfrj&#45;wget&#45;1.21.3.drv&#45;&gt;/nix/store/8lvgaha4ji2khkj8i61c5ji9b2d1ivq4&#45;glibc&#45;iconv&#45;2.35.drv</title>
<path fill="none" stroke="black" d="M85.17,-414.25C97.16,-452.93 130.77,-543.06 194,-585 218.7,-601.38 249.25,-609.56 278.46,-613.29"/>
<polygon fill="black" stroke="black" points="278.39,-616.81 288.72,-614.43 279.16,-609.85 278.39,-616.81"/>
</g>
<!-- /nix/store/yhr28h74s2z74xwxrpfq676yk3yk2glp&#45;libidn2&#45;2.3.2.drv -->
<g id="node6" class="node">
<title>/nix/store/yhr28h74s2z74xwxrpfq676yk3yk2glp&#45;libidn2&#45;2.3.2.drv</title>
<path fill="#eeeeee" stroke="black" d="M451.5,-576C451.5,-576 312.5,-576 312.5,-576 306.5,-576 300.5,-570 300.5,-564 300.5,-564 300.5,-552 300.5,-552 300.5,-546 306.5,-540 312.5,-540 312.5,-540 451.5,-540 451.5,-540 457.5,-540 463.5,-546 463.5,-552 463.5,-552 463.5,-564 463.5,-564 463.5,-570 457.5,-576 451.5,-576"/>
<text text-anchor="middle" x="382" y="-554.3" font-family="Times,serif" font-size="14.00">libidn2&#45;2.3.2.drv</text>
</g>
<!-- /nix/store/1kd6cas7lxhccf7bv1v37wvwmknahfrj&#45;wget&#45;1.21.3.drv&#45;&gt;/nix/store/yhr28h74s2z74xwxrpfq676yk3yk2glp&#45;libidn2&#45;2.3.2.drv -->
<g id="edge5" class="edge">
<title>/nix/store/1kd6cas7lxhccf7bv1v37wvwmknahfrj&#45;wget&#45;1.21.3.drv&#45;&gt;/nix/store/yhr28h74s2z74xwxrpfq676yk3yk2glp&#45;libidn2&#45;2.3.2.drv</title>
<path fill="none" stroke="black" d="M89.45,-414.07C106.13,-443.97 143.84,-503.17 194,-531 222.86,-547.01 257.92,-554.61 289.85,-557.93"/>
<polygon fill="black" stroke="black" points="289.81,-561.44 300.09,-558.86 290.45,-554.47 289.81,-561.44"/>
</g>
<!-- /nix/store/453jkcns946jwi9l4k20j32axqqfm333&#45;lzip&#45;1.23.drv -->
<g id="node7" class="node">
<title>/nix/store/453jkcns946jwi9l4k20j32axqqfm333&#45;lzip&#45;1.23.drv</title>
<path fill="#eeeeee" stroke="black" d="M437.5,-522C437.5,-522 326.5,-522 326.5,-522 320.5,-522 314.5,-516 314.5,-510 314.5,-510 314.5,-498 314.5,-498 314.5,-492 320.5,-486 326.5,-486 326.5,-486 437.5,-486 437.5,-486 443.5,-486 449.5,-492 449.5,-498 449.5,-498 449.5,-510 449.5,-510 449.5,-516 443.5,-522 437.5,-522"/>
<text text-anchor="middle" x="382" y="-500.3" font-family="Times,serif" font-size="14.00">lzip&#45;1.23.drv</text>
</g>
<!-- /nix/store/1kd6cas7lxhccf7bv1v37wvwmknahfrj&#45;wget&#45;1.21.3.drv&#45;&gt;/nix/store/453jkcns946jwi9l4k20j32axqqfm333&#45;lzip&#45;1.23.drv -->
<g id="edge6" class="edge">
<title>/nix/store/1kd6cas7lxhccf7bv1v37wvwmknahfrj&#45;wget&#45;1.21.3.drv&#45;&gt;/nix/store/453jkcns946jwi9l4k20j32axqqfm333&#45;lzip&#45;1.23.drv</title>
<path fill="none" stroke="black" d="M99.26,-414.13C120.64,-433.13 157.03,-462.21 194,-477 228.65,-490.86 269.43,-497.74 304.06,-501.09"/>
<polygon fill="black" stroke="black" points="303.85,-504.59 314.12,-501.99 304.47,-497.62 303.85,-504.59"/>
</g>
<!-- /nix/store/pw9ysk9rzxxqv67cz0jj0b9c78lkqwl9&#45;openssl&#45;3.0.7.drv -->
<g id="node8" class="node">
<title>/nix/store/pw9ysk9rzxxqv67cz0jj0b9c78lkqwl9&#45;openssl&#45;3.0.7.drv</title>
<path fill="#eeeeee" stroke="black" d="M454,-468C454,-468 310,-468 310,-468 304,-468 298,-462 298,-456 298,-456 298,-444 298,-444 298,-438 304,-432 310,-432 310,-432 454,-432 454,-432 460,-432 466,-438 466,-444 466,-444 466,-456 466,-456 466,-462 460,-468 454,-468"/>
<text text-anchor="middle" x="382" y="-446.3" font-family="Times,serif" font-size="14.00">openssl&#45;3.0.7.drv</text>
</g>
<!-- /nix/store/1kd6cas7lxhccf7bv1v37wvwmknahfrj&#45;wget&#45;1.21.3.drv&#45;&gt;/nix/store/pw9ysk9rzxxqv67cz0jj0b9c78lkqwl9&#45;openssl&#45;3.0.7.drv -->
<g id="edge7" class="edge">
<title>/nix/store/1kd6cas7lxhccf7bv1v37wvwmknahfrj&#45;wget&#45;1.21.3.drv&#45;&gt;/nix/store/pw9ysk9rzxxqv67cz0jj0b9c78lkqwl9&#45;openssl&#45;3.0.7.drv</title>
<path fill="none" stroke="black" d="M151.85,-414.05C165.79,-417.25 180.31,-420.4 194,-423 224.4,-428.78 257.79,-433.97 287.83,-438.22"/>
<polygon fill="black" stroke="black" points="287.5,-441.7 297.89,-439.62 288.47,-434.77 287.5,-441.7"/>
</g>
<!-- /nix/store/f8q80q431irja22z6rhi6981pjgi3vdr&#45;pcre&#45;8.45.drv -->
<g id="node9" class="node">
<title>/nix/store/f8q80q431irja22z6rhi6981pjgi3vdr&#45;pcre&#45;8.45.drv</title>
<path fill="#eeeeee" stroke="black" d="M440.5,-414C440.5,-414 323.5,-414 323.5,-414 317.5,-414 311.5,-408 311.5,-402 311.5,-402 311.5,-390 311.5,-390 311.5,-384 317.5,-378 323.5,-378 323.5,-378 440.5,-378 440.5,-378 446.5,-378 452.5,-384 452.5,-390 452.5,-390 452.5,-402 452.5,-402 452.5,-408 446.5,-414 440.5,-414"/>
<text text-anchor="middle" x="382" y="-392.3" font-family="Times,serif" font-size="14.00">pcre&#45;8.45.drv</text>
</g>
<!-- /nix/store/1kd6cas7lxhccf7bv1v37wvwmknahfrj&#45;wget&#45;1.21.3.drv&#45;&gt;/nix/store/f8q80q431irja22z6rhi6981pjgi3vdr&#45;pcre&#45;8.45.drv -->
<g id="edge8" class="edge">
<title>/nix/store/1kd6cas7lxhccf7bv1v37wvwmknahfrj&#45;wget&#45;1.21.3.drv&#45;&gt;/nix/store/f8q80q431irja22z6rhi6981pjgi3vdr&#45;pcre&#45;8.45.drv</title>
<path fill="none" stroke="black" d="M158.3,-396C202.25,-396 256.98,-396 301.18,-396"/>
<polygon fill="black" stroke="black" points="301.31,-399.5 311.31,-396 301.31,-392.5 301.31,-399.5"/>
</g>
<!-- /nix/store/dp0lcblncl6w88nprfjmdq066qfzzpmf&#45;perl&#45;5.36.0.drv -->
<g id="node10" class="node">
<title>/nix/store/dp0lcblncl6w88nprfjmdq066qfzzpmf&#45;perl&#45;5.36.0.drv</title>
<path fill="#eeeeee" stroke="black" d="M445.5,-360C445.5,-360 318.5,-360 318.5,-360 312.5,-360 306.5,-354 306.5,-348 306.5,-348 306.5,-336 306.5,-336 306.5,-330 312.5,-324 318.5,-324 318.5,-324 445.5,-324 445.5,-324 451.5,-324 457.5,-330 457.5,-336 457.5,-336 457.5,-348 457.5,-348 457.5,-354 451.5,-360 445.5,-360"/>
<text text-anchor="middle" x="382" y="-338.3" font-family="Times,serif" font-size="14.00">perl&#45;5.36.0.drv</text>
</g>
<!-- /nix/store/1kd6cas7lxhccf7bv1v37wvwmknahfrj&#45;wget&#45;1.21.3.drv&#45;&gt;/nix/store/dp0lcblncl6w88nprfjmdq066qfzzpmf&#45;perl&#45;5.36.0.drv -->
<g id="edge9" class="edge">
<title>/nix/store/1kd6cas7lxhccf7bv1v37wvwmknahfrj&#45;wget&#45;1.21.3.drv&#45;&gt;/nix/store/dp0lcblncl6w88nprfjmdq066qfzzpmf&#45;perl&#45;5.36.0.drv</title>
<path fill="none" stroke="black" d="M151.85,-377.95C165.79,-374.75 180.31,-371.6 194,-369 227.15,-362.69 263.85,-357.1 295.9,-352.66"/>
<polygon fill="black" stroke="black" points="296.7,-356.08 306.13,-351.26 295.75,-349.14 296.7,-356.08"/>
</g>
<!-- /nix/store/qsxjv6l0d0kxbhx5497hb3lsravlig4m&#45;pkg&#45;config&#45;wrapper&#45;0.29.2.drv -->
<g id="node11" class="node">
<title>/nix/store/qsxjv6l0d0kxbhx5497hb3lsravlig4m&#45;pkg&#45;config&#45;wrapper&#45;0.29.2.drv</title>
<path fill="#eeeeee" stroke="black" d="M500.5,-306C500.5,-306 263.5,-306 263.5,-306 257.5,-306 251.5,-300 251.5,-294 251.5,-294 251.5,-282 251.5,-282 251.5,-276 257.5,-270 263.5,-270 263.5,-270 500.5,-270 500.5,-270 506.5,-270 512.5,-276 512.5,-282 512.5,-282 512.5,-294 512.5,-294 512.5,-300 506.5,-306 500.5,-306"/>
<text text-anchor="middle" x="382" y="-284.3" font-family="Times,serif" font-size="14.00">pkg&#45;config&#45;wrapper&#45;0.29.2.drv</text>
</g>
<!-- /nix/store/1kd6cas7lxhccf7bv1v37wvwmknahfrj&#45;wget&#45;1.21.3.drv&#45;&gt;/nix/store/qsxjv6l0d0kxbhx5497hb3lsravlig4m&#45;pkg&#45;config&#45;wrapper&#45;0.29.2.drv -->
<g id="edge10" class="edge">
<title>/nix/store/1kd6cas7lxhccf7bv1v37wvwmknahfrj&#45;wget&#45;1.21.3.drv&#45;&gt;/nix/store/qsxjv6l0d0kxbhx5497hb3lsravlig4m&#45;pkg&#45;config&#45;wrapper&#45;0.29.2.drv</title>
<path fill="none" stroke="black" d="M99.26,-377.87C120.64,-358.87 157.03,-329.79 194,-315 208.88,-309.05 224.89,-304.38 241.06,-300.73"/>
<polygon fill="black" stroke="black" points="242.09,-304.09 251.14,-298.59 240.63,-297.25 242.09,-304.09"/>
</g>
<!-- /nix/store/61hjmch866cyh31lj8fq75i617jkamf8&#45;remove&#45;runtime&#45;dep&#45;on&#45;openssl&#45;headers.patch -->
<g id="node12" class="node">
<title>/nix/store/61hjmch866cyh31lj8fq75i617jkamf8&#45;remove&#45;runtime&#45;dep&#45;on&#45;openssl&#45;headers.patch</title>
<path fill="#eeeeee" stroke="black" d="M558,-252C558,-252 206,-252 206,-252 200,-252 194,-246 194,-240 194,-240 194,-228 194,-228 194,-222 200,-216 206,-216 206,-216 558,-216 558,-216 564,-216 570,-222 570,-228 570,-228 570,-240 570,-240 570,-246 564,-252 558,-252"/>
<text text-anchor="middle" x="382" y="-230.3" font-family="Times,serif" font-size="14.00">remove&#45;runtime&#45;dep&#45;on&#45;openssl&#45;headers.patch</text>
</g>
<!-- /nix/store/1kd6cas7lxhccf7bv1v37wvwmknahfrj&#45;wget&#45;1.21.3.drv&#45;&gt;/nix/store/61hjmch866cyh31lj8fq75i617jkamf8&#45;remove&#45;runtime&#45;dep&#45;on&#45;openssl&#45;headers.patch -->
<g id="edge11" class="edge">
<title>/nix/store/1kd6cas7lxhccf7bv1v37wvwmknahfrj&#45;wget&#45;1.21.3.drv&#45;&gt;/nix/store/61hjmch866cyh31lj8fq75i617jkamf8&#45;remove&#45;runtime&#45;dep&#45;on&#45;openssl&#45;headers.patch</title>
<path fill="none" stroke="black" d="M89.45,-377.93C106.13,-348.03 143.84,-288.83 194,-261 197.11,-259.28 200.28,-257.65 203.52,-256.12"/>
<polygon fill="black" stroke="black" points="205.05,-259.27 212.8,-252.04 202.23,-252.86 205.05,-259.27"/>
</g>
<!-- /nix/store/2knhp55njxnhh7j1l0w7ns0hi6bxmn1k&#45;stdenv&#45;linux.drv -->
<g id="node13" class="node">
<title>/nix/store/2knhp55njxnhh7j1l0w7ns0hi6bxmn1k&#45;stdenv&#45;linux.drv</title>
<path fill="#eeeeee" stroke="black" d="M450.5,-198C450.5,-198 313.5,-198 313.5,-198 307.5,-198 301.5,-192 301.5,-186 301.5,-186 301.5,-174 301.5,-174 301.5,-168 307.5,-162 313.5,-162 313.5,-162 450.5,-162 450.5,-162 456.5,-162 462.5,-168 462.5,-174 462.5,-174 462.5,-186 462.5,-186 462.5,-192 456.5,-198 450.5,-198"/>
<text text-anchor="middle" x="382" y="-176.3" font-family="Times,serif" font-size="14.00">stdenv&#45;linux.drv</text>
</g>
<!-- /nix/store/1kd6cas7lxhccf7bv1v37wvwmknahfrj&#45;wget&#45;1.21.3.drv&#45;&gt;/nix/store/2knhp55njxnhh7j1l0w7ns0hi6bxmn1k&#45;stdenv&#45;linux.drv -->
<g id="edge12" class="edge">
<title>/nix/store/1kd6cas7lxhccf7bv1v37wvwmknahfrj&#45;wget&#45;1.21.3.drv&#45;&gt;/nix/store/2knhp55njxnhh7j1l0w7ns0hi6bxmn1k&#45;stdenv&#45;linux.drv</title>
<path fill="none" stroke="black" d="M85.17,-377.75C97.16,-339.07 130.77,-248.94 194,-207 222.36,-188.18 258.46,-180.19 291.35,-177.33"/>
<polygon fill="black" stroke="black" points="291.73,-180.81 301.45,-176.6 291.22,-173.83 291.73,-180.81"/>
</g>
<!-- /nix/store/zfnvfh1y5w33n0b1sqafb6lj2rma3plm&#45;util&#45;linux&#45;minimal&#45;2.38.1.drv -->
<g id="node14" class="node">
<title>/nix/store/zfnvfh1y5w33n0b1sqafb6lj2rma3plm&#45;util&#45;linux&#45;minimal&#45;2.38.1.drv</title>
<path fill="#eeeeee" stroke="black" d="M494,-144C494,-144 270,-144 270,-144 264,-144 258,-138 258,-132 258,-132 258,-120 258,-120 258,-114 264,-108 270,-108 270,-108 494,-108 494,-108 500,-108 506,-114 506,-120 506,-120 506,-132 506,-132 506,-138 500,-144 494,-144"/>
<text text-anchor="middle" x="382" y="-122.3" font-family="Times,serif" font-size="14.00">util&#45;linux&#45;minimal&#45;2.38.1.drv</text>
</g>
<!-- /nix/store/1kd6cas7lxhccf7bv1v37wvwmknahfrj&#45;wget&#45;1.21.3.drv&#45;&gt;/nix/store/zfnvfh1y5w33n0b1sqafb6lj2rma3plm&#45;util&#45;linux&#45;minimal&#45;2.38.1.drv -->
<g id="edge13" class="edge">
<title>/nix/store/1kd6cas7lxhccf7bv1v37wvwmknahfrj&#45;wget&#45;1.21.3.drv&#45;&gt;/nix/store/zfnvfh1y5w33n0b1sqafb6lj2rma3plm&#45;util&#45;linux&#45;minimal&#45;2.38.1.drv</title>
<path fill="none" stroke="black" d="M82.63,-377.68C90.32,-331.49 117.25,-209.88 194,-153 209.78,-141.3 228.41,-133.6 247.7,-128.67"/>
<polygon fill="black" stroke="black" points="248.56,-132.06 257.51,-126.4 246.98,-125.24 248.56,-132.06"/>
</g>
<!-- /nix/store/11ryqdgc97c2lcqg2x4k904p3s9mp5n9&#45;wget&#45;1.21.3.tar.lz.drv -->
<g id="node15" class="node">
<title>/nix/store/11ryqdgc97c2lcqg2x4k904p3s9mp5n9&#45;wget&#45;1.21.3.tar.lz.drv</title>
<path fill="#eeeeee" stroke="black" d="M469,-90C469,-90 295,-90 295,-90 289,-90 283,-84 283,-78 283,-78 283,-66 283,-66 283,-60 289,-54 295,-54 295,-54 469,-54 469,-54 475,-54 481,-60 481,-66 481,-66 481,-78 481,-78 481,-84 475,-90 469,-90"/>
<text text-anchor="middle" x="382" y="-68.3" font-family="Times,serif" font-size="14.00">wget&#45;1.21.3.tar.lz.drv</text>
</g>
<!-- /nix/store/1kd6cas7lxhccf7bv1v37wvwmknahfrj&#45;wget&#45;1.21.3.drv&#45;&gt;/nix/store/11ryqdgc97c2lcqg2x4k904p3s9mp5n9&#45;wget&#45;1.21.3.tar.lz.drv -->
<g id="edge14" class="edge">
<title>/nix/store/1kd6cas7lxhccf7bv1v37wvwmknahfrj&#45;wget&#45;1.21.3.drv&#45;&gt;/nix/store/11ryqdgc97c2lcqg2x4k904p3s9mp5n9&#45;wget&#45;1.21.3.tar.lz.drv</title>
<path fill="none" stroke="black" d="M80.94,-377.69C84.72,-324.86 103.37,-171.37 194,-99 216.14,-81.32 244.64,-72.49 272.67,-68.57"/>
<polygon fill="black" stroke="black" points="273.46,-72 282.97,-67.33 272.63,-65.05 273.46,-72"/>
</g>
<!-- /nix/store/4fghbkhrcvq3m2rhza4s3vpn9rzfh63f&#45;zlib&#45;1.2.13.drv -->
<g id="node16" class="node">
<title>/nix/store/4fghbkhrcvq3m2rhza4s3vpn9rzfh63f&#45;zlib&#45;1.2.13.drv</title>
<path fill="#eeeeee" stroke="black" d="M444,-36C444,-36 320,-36 320,-36 314,-36 308,-30 308,-24 308,-24 308,-12 308,-12 308,-6 314,0 320,0 320,0 444,0 444,0 450,0 456,-6 456,-12 456,-12 456,-24 456,-24 456,-30 450,-36 444,-36"/>
<text text-anchor="middle" x="382" y="-14.3" font-family="Times,serif" font-size="14.00">zlib&#45;1.2.13.drv</text>
</g>
<!-- /nix/store/1kd6cas7lxhccf7bv1v37wvwmknahfrj&#45;wget&#45;1.21.3.drv&#45;&gt;/nix/store/4fghbkhrcvq3m2rhza4s3vpn9rzfh63f&#45;zlib&#45;1.2.13.drv -->
<g id="edge15" class="edge">
<title>/nix/store/1kd6cas7lxhccf7bv1v37wvwmknahfrj&#45;wget&#45;1.21.3.drv&#45;&gt;/nix/store/4fghbkhrcvq3m2rhza4s3vpn9rzfh63f&#45;zlib&#45;1.2.13.drv</title>
<path fill="none" stroke="black" d="M79.73,-377.89C79.93,-319.26 89.14,-133.34 194,-45 222.31,-21.15 262.01,-13.08 297.54,-11.51"/>
<polygon fill="black" stroke="black" points="298.03,-15 307.93,-11.23 297.84,-8 298.03,-15"/>
</g>
</g>
</svg>
