<?xml version="1.0" encoding="UTF-8" standalone="no"?>
<!DOCTYPE svg PUBLIC "-//W3C//DTD SVG 1.1//EN"
 "http://www.w3.org/Graphics/SVG/1.1/DTD/svg11.dtd">
<!-- Generated by graphviz version 2.43.0 (0)
 -->
<!-- Title: %3 Pages: 1 -->
<svg width="960pt" height="265pt"
 viewBox="0.00 0.00 960.00 264.77" xmlns="http://www.w3.org/2000/svg" xmlns:xlink="http://www.w3.org/1999/xlink">
<g id="graph0" class="graph" transform="scale(1 1) rotate(0) translate(4 260.77)">
<title>%3</title>
<polygon fill="white" stroke="transparent" points="-4,4 -4,-260.77 956,-260.77 956,4 -4,4"/>
<!-- /nix/store/4nlgxhb09sdr51nc9hdm8az5b08vzkgx&#45;glibc&#45;2.35&#45;163 -->
<g id="node1" class="node">
<title>/nix/store/4nlgxhb09sdr51nc9hdm8az5b08vzkgx&#45;glibc&#45;2.35&#45;163</title>
<path fill="#eeeeee" stroke="black" d="M578,-171C578,-171 455,-171 455,-171 449,-171 443,-165 443,-159 443,-159 443,-147 443,-147 443,-141 449,-135 455,-135 455,-135 578,-135 578,-135 584,-135 590,-141 590,-147 590,-147 590,-159 590,-159 590,-165 584,-171 578,-171"/>
<text text-anchor="middle" x="516.5" y="-149.3" font-family="Times,serif" font-size="14.00">glibc&#45;2.35&#45;163</text>
</g>
<!-- /nix/store/5mh5019jigj0k14rdnjam1xwk5avn1id&#45;libidn2&#45;2.3.2 -->
<g id="node3" class="node">
<title>/nix/store/5mh5019jigj0k14rdnjam1xwk5avn1id&#45;libidn2&#45;2.3.2</title>
<path fill="#ffe6e6" stroke="black" d="M749,-213C749,-213 638,-213 638,-213 632,-213 626,-207 626,-201 626,-201 626,-189 626,-189 626,-183 632,-177 638,-177 638,-177 749,-177 749,-177 755,-177 761,-183 761,-189 761,-189 761,-201 761,-201 761,-207 755,-213 749,-213"/>
<text text-anchor="middle" x="693.5" y="-191.3" font-family="Times,serif" font-size="14.00">libidn2&#45;2.3.2</text>
</g>
<!-- /nix/store/4nlgxhb09sdr51nc9hdm8az5b08vzkgx&#45;glibc&#45;2.35&#45;163&#45;&gt;/nix/store/5mh5019jigj0k14rdnjam1xwk5avn1id&#45;libidn2&#45;2.3.2 -->
<g id="edge2" class="edge">
<title>/nix/store/4nlgxhb09sdr51nc9hdm8az5b08vzkgx&#45;glibc&#45;2.35&#45;163&#45;&gt;/nix/store/5mh5019jigj0k14rdnjam1xwk5avn1id&#45;libidn2&#45;2.3.2</title>
<path fill="none" stroke="black" d="M590.2,-170.45C598.7,-172.49 607.4,-174.58 615.95,-176.63"/>
<polygon fill="black" stroke="black" points="615.37,-180.09 625.91,-179.02 617,-173.28 615.37,-180.09"/>
</g>
<!-- /nix/store/3cpw8kzaqzrkksp50gaw490qgy99cwf4&#45;wget&#45;1.21.3 -->
<g id="node2" class="node">
<title>/nix/store/3cpw8kzaqzrkksp50gaw490qgy99cwf4&#45;wget&#45;1.21.3</title>
<path fill="#eeeeee" stroke="black" d="M117,-171C117,-171 12,-171 12,-171 6,-171 0,-165 0,-159 0,-159 0,-147 0,-147 0,-141 6,-135 12,-135 12,-135 117,-135 117,-135 123,-135 129,-141 129,-147 129,-147 129,-159 129,-159 129,-165 123,-171 117,-171"/>
<text text-anchor="middle" x="64.5" y="-149.3" font-family="Times,serif" font-size="14.00">wget&#45;1.21.3</text>
</g>
<!-- /nix/store/3cpw8kzaqzrkksp50gaw490qgy99cwf4&#45;wget&#45;1.21.3&#45;&gt;/nix/store/4nlgxhb09sdr51nc9hdm8az5b08vzkgx&#45;glibc&#45;2.35&#45;163 -->
<g id="edge1" class="edge">
<title>/nix/store/3cpw8kzaqzrkksp50gaw490qgy99cwf4&#45;wget&#45;1.21.3&#45;&gt;/nix/store/4nlgxhb09sdr51nc9hdm8az5b08vzkgx&#45;glibc&#45;2.35&#45;163</title>
<path fill="none" stroke="black" d="M90.62,-171.23C109.9,-184.05 137.76,-200.08 165,-207 269.25,-233.47 302.3,-231.61 407,-207 432.51,-201 458.89,-188.06 479.24,-176.34"/>
<polygon fill="black" stroke="black" points="481.03,-179.35 487.86,-171.25 477.47,-173.32 481.03,-179.35"/>
</g>
<!-- /nix/store/3cpw8kzaqzrkksp50gaw490qgy99cwf4&#45;wget&#45;1.21.3&#45;&gt;/nix/store/5mh5019jigj0k14rdnjam1xwk5avn1id&#45;libidn2&#45;2.3.2 -->
<g id="edge3" class="edge">
<title>/nix/store/3cpw8kzaqzrkksp50gaw490qgy99cwf4&#45;wget&#45;1.21.3&#45;&gt;/nix/store/5mh5019jigj0k14rdnjam1xwk5avn1id&#45;libidn2&#45;2.3.2</title>
<path fill="none" stroke="black" d="M81.68,-171.2C99.8,-190.07 131.1,-218.42 165,-230 322.81,-283.93 522.34,-243.67 624.87,-215.76"/>
<polygon fill="black" stroke="black" points="626.08,-219.06 634.78,-213.02 624.21,-212.31 626.08,-219.06"/>
</g>
<!-- /nix/store/4mxnw95jcm5a27qk60z7yc0gvxp42b9a&#45;openssl&#45;3.0.7 -->
<g id="node5" class="node">
<title>/nix/store/4mxnw95jcm5a27qk60z7yc0gvxp42b9a&#45;openssl&#45;3.0.7</title>
<path fill="#ffe6e6" stroke="black" d="M343.5,-198C343.5,-198 228.5,-198 228.5,-198 222.5,-198 216.5,-192 216.5,-186 216.5,-186 216.5,-174 216.5,-174 216.5,-168 222.5,-162 228.5,-162 228.5,-162 343.5,-162 343.5,-162 349.5,-162 355.5,-168 355.5,-174 355.5,-174 355.5,-186 355.5,-186 355.5,-192 349.5,-198 343.5,-198"/>
<text text-anchor="middle" x="286" y="-176.3" font-family="Times,serif" font-size="14.00">openssl&#45;3.0.7</text>
</g>
<!-- /nix/store/3cpw8kzaqzrkksp50gaw490qgy99cwf4&#45;wget&#45;1.21.3&#45;&gt;/nix/store/4mxnw95jcm5a27qk60z7yc0gvxp42b9a&#45;openssl&#45;3.0.7 -->
<g id="edge5" class="edge">
<title>/nix/store/3cpw8kzaqzrkksp50gaw490qgy99cwf4&#45;wget&#45;1.21.3&#45;&gt;/nix/store/4mxnw95jcm5a27qk60z7yc0gvxp42b9a&#45;openssl&#45;3.0.7</title>
<path fill="none" stroke="black" d="M129.28,-160.85C153.42,-163.81 181.18,-167.23 206.51,-170.35"/>
<polygon fill="black" stroke="black" points="206.1,-173.82 216.46,-171.57 206.96,-166.87 206.1,-173.82"/>
</g>
<!-- /nix/store/1dgws25664p544znpc6f1nh9xmjf4ykc&#45;pcre&#45;8.45 -->
<g id="node6" class="node">
<title>/nix/store/1dgws25664p544znpc6f1nh9xmjf4ykc&#45;pcre&#45;8.45</title>
<path fill="#eeeeee" stroke="black" d="M330,-144C330,-144 242,-144 242,-144 236,-144 230,-138 230,-132 230,-132 230,-120 230,-120 230,-114 236,-108 242,-108 242,-108 330,-108 330,-108 336,-108 342,-114 342,-120 342,-120 342,-132 342,-132 342,-138 336,-144 330,-144"/>
<text text-anchor="middle" x="286" y="-122.3" font-family="Times,serif" font-size="14.00">pcre&#45;8.45</text>
</g>
<!-- /nix/store/3cpw8kzaqzrkksp50gaw490qgy99cwf4&#45;wget&#45;1.21.3&#45;&gt;/nix/store/1dgws25664p544znpc6f1nh9xmjf4ykc&#45;pcre&#45;8.45 -->
<g id="edge7" class="edge">
<title>/nix/store/3cpw8kzaqzrkksp50gaw490qgy99cwf4&#45;wget&#45;1.21.3&#45;&gt;/nix/store/1dgws25664p544znpc6f1nh9xmjf4ykc&#45;pcre&#45;8.45</title>
<path fill="none" stroke="black" d="M129.28,-145.15C157.69,-141.66 191.12,-137.55 219.7,-134.03"/>
<polygon fill="black" stroke="black" points="220.5,-137.46 229.99,-132.77 219.64,-130.51 220.5,-137.46"/>
</g>
<!-- /nix/store/6fs8xlglag611gxmrzyc7ddfv6lbz77d&#45;util&#45;linux&#45;minimal&#45;2.38.1&#45;lib -->
<g id="node7" class="node">
<title>/nix/store/6fs8xlglag611gxmrzyc7ddfv6lbz77d&#45;util&#45;linux&#45;minimal&#45;2.38.1&#45;lib</title>
<path fill="#eeeeee" stroke="black" d="M395,-90C395,-90 177,-90 177,-90 171,-90 165,-84 165,-78 165,-78 165,-66 165,-66 165,-60 171,-54 177,-54 177,-54 395,-54 395,-54 401,-54 407,-60 407,-66 407,-66 407,-78 407,-78 407,-84 401,-90 395,-90"/>
<text text-anchor="middle" x="286" y="-68.3" font-family="Times,serif" font-size="14.00">util&#45;linux&#45;minimal&#45;2.38.1&#45;lib</text>
</g>
<!-- /nix/store/3cpw8kzaqzrkksp50gaw490qgy99cwf4&#45;wget&#45;1.21.3&#45;&gt;/nix/store/6fs8xlglag611gxmrzyc7ddfv6lbz77d&#45;util&#45;linux&#45;minimal&#45;2.38.1&#45;lib -->
<g id="edge9" class="edge">
<title>/nix/store/3cpw8kzaqzrkksp50gaw490qgy99cwf4&#45;wget&#45;1.21.3&#45;&gt;/nix/store/6fs8xlglag611gxmrzyc7ddfv6lbz77d&#45;util&#45;linux&#45;minimal&#45;2.38.1&#45;lib</title>
<path fill="none" stroke="black" d="M93.67,-134.98C113.07,-123.27 139.79,-108.47 165,-99 170.77,-96.83 176.77,-94.81 182.87,-92.93"/>
<polygon fill="black" stroke="black" points="183.91,-96.27 192.51,-90.08 181.93,-89.55 183.91,-96.27"/>
</g>
<!-- /nix/store/026hln0aq1hyshaxsdvhg0kmcm6yf45r&#45;zlib&#45;1.2.13 -->
<g id="node8" class="node">
<title>/nix/store/026hln0aq1hyshaxsdvhg0kmcm6yf45r&#45;zlib&#45;1.2.13</title>
<path fill="#eeeeee" stroke="black" d="M334,-36C334,-36 238,-36 238,-36 232,-36 226,-30 226,-24 226,-24 226,-12 226,-12 226,-6 232,0 238,0 238,0 334,0 334,0 340,0 346,-6 346,-12 346,-12 346,-24 346,-24 346,-30 340,-36 334,-36"/>
<text text-anchor="middle" x="286" y="-14.3" font-family="Times,serif" font-size="14.00">zlib&#45;1.2.13</text>
</g>
<!-- /nix/store/3cpw8kzaqzrkksp50gaw490qgy99cwf4&#45;wget&#45;1.21.3&#45;&gt;/nix/store/026hln0aq1hyshaxsdvhg0kmcm6yf45r&#45;zlib&#45;1.2.13 -->
<g id="edge11" class="edge">
<title>/nix/store/3cpw8kzaqzrkksp50gaw490qgy99cwf4&#45;wget&#45;1.21.3&#45;&gt;/nix/store/026hln0aq1hyshaxsdvhg0kmcm6yf45r&#45;zlib&#45;1.2.13</title>
<path fill="none" stroke="black" d="M76.91,-134.94C93.32,-110.56 125.93,-67.57 165,-45 180.38,-36.12 198.43,-30.15 215.8,-26.15"/>
<polygon fill="black" stroke="black" points="216.86,-29.51 225.92,-24.02 215.41,-22.66 216.86,-29.51"/>
</g>
<!-- /nix/store/34xlpp3j3vy7ksn09zh44f1c04w77khf&#45;libunistring&#45;1.0 -->
<g id="node4" class="node">
<title>/nix/store/34xlpp3j3vy7ksn09zh44f1c04w77khf&#45;libunistring&#45;1.0</title>
<path fill="#eeeeee" stroke="black" d="M940,-213C940,-213 809,-213 809,-213 803,-213 797,-207 797,-201 797,-201 797,-189 797,-189 797,-183 803,-177 809,-177 809,-177 940,-177 940,-177 946,-177 952,-183 952,-189 952,-189 952,-201 952,-201 952,-207 946,-213 940,-213"/>
<text text-anchor="middle" x="874.5" y="-191.3" font-family="Times,serif" font-size="14.00">libunistring&#45;1.0</text>
</g>
<!-- /nix/store/5mh5019jigj0k14rdnjam1xwk5avn1id&#45;libidn2&#45;2.3.2&#45;&gt;/nix/store/34xlpp3j3vy7ksn09zh44f1c04w77khf&#45;libunistring&#45;1.0 -->
<g id="edge4" class="edge">
<title>/nix/store/5mh5019jigj0k14rdnjam1xwk5avn1id&#45;libidn2&#45;2.3.2&#45;&gt;/nix/store/34xlpp3j3vy7ksn09zh44f1c04w77khf&#45;libunistring&#45;1.0</title>
<path fill="none" stroke="black" d="M761.15,-195C769.51,-195 778.16,-195 786.77,-195"/>
<polygon fill="black" stroke="black" points="786.84,-198.5 796.84,-195 786.84,-191.5 786.84,-198.5"/>
</g>
<!-- /nix/store/4mxnw95jcm5a27qk60z7yc0gvxp42b9a&#45;openssl&#45;3.0.7&#45;&gt;/nix/store/4nlgxhb09sdr51nc9hdm8az5b08vzkgx&#45;glibc&#45;2.35&#45;163 -->
<g id="edge6" class="edge">
<title>/nix/store/4mxnw95jcm5a27qk60z7yc0gvxp42b9a&#45;openssl&#45;3.0.7&#45;&gt;/nix/store/4nlgxhb09sdr51nc9hdm8az5b08vzkgx&#45;glibc&#45;2.35&#45;163</title>
<path fill="none" stroke="black" d="M355.56,-171.9C379.81,-169.03 407.36,-165.78 432.67,-162.79"/>
<polygon fill="black" stroke="black" points="433.1,-166.26 442.62,-161.61 432.28,-159.31 433.1,-166.26"/>
</g>
<!-- /nix/store/1dgws25664p544znpc6f1nh9xmjf4ykc&#45;pcre&#45;8.45&#45;&gt;/nix/store/4nlgxhb09sdr51nc9hdm8az5b08vzkgx&#45;glibc&#45;2.35&#45;163 -->
<g id="edge8" class="edge">
<title>/nix/store/1dgws25664p544znpc6f1nh9xmjf4ykc&#45;pcre&#45;8.45&#45;&gt;/nix/store/4nlgxhb09sdr51nc9hdm8az5b08vzkgx&#45;glibc&#45;2.35&#45;163</title>
<path fill="none" stroke="black" d="M342.02,-132.5C369.19,-135.71 402.54,-139.65 432.71,-143.22"/>
<polygon fill="black" stroke="black" points="432.47,-146.71 442.81,-144.41 433.29,-139.76 432.47,-146.71"/>
</g>
<!-- /nix/store/6fs8xlglag611gxmrzyc7ddfv6lbz77d&#45;util&#45;linux&#45;minimal&#45;2.38.1&#45;lib&#45;&gt;/nix/store/4nlgxhb09sdr51nc9hdm8az5b08vzkgx&#45;glibc&#45;2.35&#45;163 -->
<g id="edge10" class="edge">
<title>/nix/store/6fs8xlglag611gxmrzyc7ddfv6lbz77d&#45;util&#45;linux&#45;minimal&#45;2.38.1&#45;lib&#45;&gt;/nix/store/4nlgxhb09sdr51nc9hdm8az5b08vzkgx&#45;glibc&#45;2.35&#45;163</title>
<path fill="none" stroke="black" d="M378.08,-90.06C387.94,-92.73 397.74,-95.71 407,-99 430.38,-107.31 455.25,-119.43 475.27,-130.08"/>
<polygon fill="black" stroke="black" points="473.64,-133.17 484.1,-134.85 476.97,-127.01 473.64,-133.17"/>
</g>
<!-- /nix/store/026hln0aq1hyshaxsdvhg0kmcm6yf45r&#45;zlib&#45;1.2.13&#45;&gt;/nix/store/4nlgxhb09sdr51nc9hdm8az5b08vzkgx&#45;glibc&#45;2.35&#45;163 -->
<g id="edge12" class="edge">
<title>/nix/store/026hln0aq1hyshaxsdvhg0kmcm6yf45r&#45;zlib&#45;1.2.13&#45;&gt;/nix/store/4nlgxhb09sdr51nc9hdm8az5b08vzkgx&#45;glibc&#45;2.35&#45;163</title>
<path fill="none" stroke="black" d="M346.13,-24.53C366.33,-28.48 388.47,-34.82 407,-45 444.05,-65.34 476.93,-102.09 496.54,-127.01"/>
<polygon fill="black" stroke="black" points="493.79,-129.17 502.66,-134.96 499.33,-124.9 493.79,-129.17"/>
</g>
</g>
</svg>
